Raleway-Bold.ufo
<glyph name="dollar" format="1">
  <advance width="649"/>
  <unicode hex="0024"/>
  <outline>
    <contour>
      <point x="291" y="-129" type="line"/>
      <point x="371" y="-129" type="line"/>
      <point x="371" y="95" type="line"/>
      <point x="291" y="95" type="line"/>
    </contour>
    <contour>
      <point x="357" y="115" type="line"/>
      <point x="357" y="603" type="line"/>
      <point x="305" y="589" type="line"/>
      <point x="305" y="117" type="line"/>
    </contour>
    <contour>
      <point x="291" y="609" type="line"/>
      <point x="371" y="623" type="line"/>
      <point x="371" y="815" type="line"/>
      <point x="291" y="815" type="line"/>
    </contour>
    <component base="S" xOffset="19"/>
  </outline>
</glyph>
<glyph name="quotesingle" format="1">
  <advance width="266"/>
  <unicode hex="0027"/>
  <outline>
    <contour>
      <point x="213" y="496" type="line"/>
      <point x="213" y="730" type="line"/>
      <point x="53" y="730" type="line"/>
      <point x="53" y="496" type="line"/>
    </contour>
  </outline>
</glyph>
<glyph name="plus" format="1">
  <advance width="428"/>
  <unicode hex="002B"/>
  <outline>
    <contour>
      <point x="299" y="430" type="line"/>
      <point x="299" y="525" type="line"/>
      <point x="129" y="525" type="line"/>
      <point x="129" y="430" type="line"/>
      <point x="44" y="430" type="line"/>
      <point x="44" y="280" type="line"/>
      <point x="129" y="280" type="line"/>
      <point x="129" y="185" type="line"/>
      <point x="299" y="185" type="line"/>
      <point x="299" y="280" type="line"/>
      <point x="384" y="280" type="line"/>
      <point x="384" y="430" type="line"/>
    </contour>
  </outline>
</glyph>
<glyph name="hyphen" format="1">
  <advance width="413"/>
  <unicode hex="002D"/>
  <outline>
    <contour>
      <point x="363" y="191" type="line"/>
      <point x="363" y="361" type="line"/>
      <point x="50" y="361" type="line"/>
      <point x="50" y="191" type="line"/>
    </contour>
  </outline>
</glyph>
<glyph name="two" format="1">
  <advance width="599"/>
  <unicode hex="0032"/>
  <outline>
    <contour>
      <point x="558" y="0" type="line"/>
      <point x="558" y="170" type="line"/>
      <point x="318" y="170" type="line"/>
      <point x="361" y="195"/>
      <point x="406" y="215"/>
      <point x="445" y="237" type="curve" smooth="yes"/>
      <point x="502" y="275"/>
      <point x="547" y="318"/>
      <point x="547" y="401" type="curve" smooth="yes"/>
      <point x="547" y="514"/>
      <point x="465" y="581"/>
      <point x="313" y="581" type="curve" smooth="yes"/>
      <point x="199" y="581"/>
      <point x="88" y="543"/>
      <point x="36" y="486" type="curve"/>
      <point x="156" y="345" type="line"/>
      <point x="199" y="395"/>
      <point x="236" y="417"/>
      <point x="280" y="417" type="curve" smooth="yes"/>
      <point x="317" y="417"/>
      <point x="340" y="401"/>
      <point x="340" y="368" type="curve" smooth="yes"/>
      <point x="340" y="344"/>
      <point x="327" y="336"/>
      <point x="182" y="258" type="curve" smooth="yes"/>
      <point x="71" y="198"/>
      <point x="31" y="133"/>
      <point x="31" y="0" type="curve"/>
    </contour>
  </outline>
</glyph>
<glyph name="A" format="1">
  <advance width="667"/>
  <unicode hex="0041"/>
  <outline>
    <contour>
      <point x="-2" y="0" type="line"/>
      <point x="197" y="0" type="line"/>
      <point x="239" y="139" type="line"/>
      <point x="428" y="139" type="line"/>
      <point x="471" y="0" type="line"/>
      <point x="669" y="0" type="line"/>
      <point x="443" y="710" type="line"/>
      <point x="225" y="710" type="line"/>
    </contour>
    <contour>
      <point x="268" y="269" type="line"/>
      <point x="334" y="519" type="line"/>
      <point x="397" y="269" type="line"/>
    </contour>
    <contour>
      <point x="669" y="0" type="move" name="ogonek"/>
    </contour>
    <contour>
      <point x="345" y="0" type="move" name="bottom"/>
    </contour>
    <contour>
      <point x="334" y="710" type="move" name="top"/>
    </contour>
  </outline>
</glyph>
<glyph name="E" format="1">
  <advance width="597"/>
  <unicode hex="0045"/>
  <outline>
    <contour>
      <point x="256" y="170" type="line"/>
      <point x="256" y="282" type="line"/>
      <point x="514" y="282" type="line"/>
      <point x="514" y="440" type="line"/>
      <point x="256" y="440" type="line"/>
      <point x="256" y="540" type="line"/>
      <point x="558" y="540" type="line"/>
      <point x="558" y="710" type="line"/>
      <point x="61" y="710" type="line"/>
      <point x="61" y="0" type="line"/>
      <point x="567" y="0" type="line"/>
      <point x="567" y="170" type="line"/>
    </contour>
    <contour>
      <point x="567" y="0" type="move" name="ogonek"/>
    </contour>
    <contour>
      <point x="316" y="710" type="move" name="top"/>
    </contour>
    <contour>
      <point x="20" y="710" type="move" name="topleft"/>
    </contour>
    <contour>
      <point x="316" y="0" type="move" name="bottom"/>
    </contour>
  </outline>
</glyph>
<glyph name="J" format="1">
  <advance width="498"/>
  <unicode hex="004A"/>
  <outline>
    <contour>
      <point x="1" y="33" type="line"/>
      <point x="43" y="4"/>
      <point x="94" y="-11"/>
      <point x="155" y="-11" type="curve" smooth="yes"/>
      <point x="413" y="-11"/>
      <point x="445" y="133"/>
      <point x="445" y="349" type="curve" smooth="yes"/>
      <point x="445" y="710" type="line"/>
      <point x="250" y="710" type="line"/>
      <point x="250" y="349" type="line" smooth="yes"/>
      <point x="250" y="214"/>
      <point x="238" y="162"/>
      <point x="155" y="162" type="curve" smooth="yes"/>
      <point x="98" y="162"/>
      <point x="50" y="186"/>
      <point x="42" y="192" type="curve"/>
    </contour>
    <contour>
      <point x="350" y="710" type="move" name="top"/>
    </contour>
  </outline>
</glyph>
<glyph name="K" format="1">
  <advance width="690"/>
  <unicode hex="004B"/>
  <outline>
    <contour>
      <point x="256" y="0" type="line"/>
      <point x="256" y="205" type="line"/>
      <point x="310" y="261" type="line"/>
      <point x="486" y="0" type="line"/>
      <point x="710" y="0" type="line"/>
      <point x="434" y="392" type="line"/>
      <point x="692" y="710" type="line"/>
      <point x="472" y="710" type="line"/>
      <point x="256" y="440" type="line"/>
      <point x="256" y="710" type="line"/>
      <point x="61" y="710" type="line"/>
      <point x="61" y="0" type="line"/>
    </contour>
    <contour>
      <point x="370" y="0" type="move" name="bottom"/>
    </contour>
  </outline>
</glyph>
<glyph name="L" format="1">
  <advance width="585"/>
  <unicode hex="004C"/>
  <outline>
    <contour>
      <point x="578" y="0" type="line"/>
      <point x="578" y="170" type="line"/>
      <point x="256" y="170" type="line"/>
      <point x="256" y="710" type="line"/>
      <point x="61" y="710" type="line"/>
      <point x="61" y="0" type="line"/>
    </contour>
    <contour>
      <point x="337" y="0" type="move" name="bottom"/>
    </contour>
    <contour>
      <point x="161" y="710" type="move" name="top"/>
    </contour>
    <contour>
      <point x="385" y="526" type="move" name="topright"/>
    </contour>
    <contour>
      <point x="293" y="355" type="move" name="center"/>
    </contour>
  </outline>
</glyph>
<glyph name="M" format="1">
  <advance width="854"/>
  <unicode hex="004D"/>
  <outline>
    <contour>
      <point x="793" y="0" type="line"/>
      <point x="793" y="710" type="line"/>
      <point x="581" y="710" type="line"/>
      <point x="427" y="376" type="line"/>
      <point x="274" y="710" type="line"/>
      <point x="61" y="710" type="line"/>
      <point x="61" y="0" type="line"/>
      <point x="256" y="0" type="line"/>
      <point x="256" y="374" type="line"/>
      <point x="375" y="111" type="line"/>
      <point x="479" y="111" type="line"/>
      <point x="598" y="374" type="line"/>
      <point x="598" y="0" type="line"/>
    </contour>
    <contour>
      <point x="427" y="710" type="move" name="top"/>
    </contour>
    <contour>
      <point x="427" y="0" type="move" name="bottom"/>
    </contour>
  </outline>
</glyph>
<glyph name="N" format="1">
  <advance width="754"/>
  <unicode hex="004E"/>
  <outline>
    <contour>
      <point x="538" y="0" type="line"/>
      <point x="693" y="0" type="line"/>
      <point x="693" y="710" type="line"/>
      <point x="498" y="710" type="line"/>
      <point x="498" y="349" type="line"/>
      <point x="213" y="710" type="line"/>
      <point x="61" y="710" type="line"/>
      <point x="61" y="0" type="line"/>
      <point x="256" y="0" type="line"/>
      <point x="256" y="349" type="line"/>
    </contour>
    <contour>
      <point x="374" y="709" type="move" name="top"/>
    </contour>
    <contour>
      <point x="374" y="0" type="move" name="bottom"/>
    </contour>
  </outline>
</glyph>
<glyph name="R" format="1">
  <advance width="675"/>
  <unicode hex="0052"/>
  <outline>
    <contour>
      <point x="256" y="0" type="line"/>
      <point x="256" y="218" type="line"/>
      <point x="335" y="218" type="line"/>
      <point x="460" y="0" type="line"/>
      <point x="674" y="0" type="line"/>
      <point x="524" y="261" type="line"/>
      <point x="588" y="306"/>
      <point x="626" y="382"/>
      <point x="626" y="464" type="curve" smooth="yes"/>
      <point x="626" y="585"/>
      <point x="526" y="710"/>
      <point x="387" y="710" type="curve" smooth="yes"/>
      <point x="61" y="710" type="line"/>
      <point x="61" y="0" type="line"/>
    </contour>
    <contour>
      <point x="256" y="540" type="line"/>
      <point x="374" y="540" type="line" smooth="yes"/>
      <point x="398" y="540"/>
      <point x="428" y="513"/>
      <point x="428" y="464" type="curve" smooth="yes"/>
      <point x="428" y="416"/>
      <point x="403" y="388"/>
      <point x="379" y="388" type="curve" smooth="yes"/>
      <point x="256" y="388" type="line"/>
    </contour>
    <contour>
      <point x="319" y="709" type="move" name="top"/>
    </contour>
    <contour>
      <point x="354" y="0" type="move" name="bottom"/>
    </contour>
  </outline>
</glyph>
<glyph name="V" format="1">
  <advance width="672"/>
  <unicode hex="0056"/>
  <outline>
    <contour>
      <point x="-8" y="710" type="line"/>
      <point x="240" y="0" type="line"/>
      <point x="434" y="0" type="line"/>
      <point x="679" y="710" type="line"/>
      <point x="474" y="710" type="line"/>
      <point x="337" y="225" type="line"/>
      <point x="198" y="710" type="line"/>
    </contour>
  </outline>
</glyph>
<glyph name="W" format="1">
  <advance width="1057"/>
  <unicode hex="0057"/>
  <outline>
    <contour>
      <point x="402" y="371" type="line"/>
      <point x="353" y="226" type="line"/>
      <point x="199" y="710" type="line"/>
      <point x="-12" y="710" type="line"/>
      <point x="256" y="0" type="line"/>
      <point x="425" y="0" type="line"/>
      <point x="528" y="254" type="line"/>
      <point x="632" y="0" type="line"/>
      <point x="801" y="0" type="line"/>
      <point x="1069" y="710" type="line"/>
      <point x="857" y="710" type="line"/>
      <point x="704" y="226" type="line"/>
      <point x="653" y="371" type="line"/>
      <point x="773" y="710" type="line"/>
      <point x="594" y="710" type="line"/>
      <point x="528" y="491" type="line"/>
      <point x="463" y="710" type="line"/>
      <point x="284" y="710" type="line"/>
    </contour>
    <contour>
      <point x="528" y="710" type="move" name="top"/>
    </contour>
  </outline>
</glyph>
<glyph name="X" format="1">
  <advance width="657"/>
  <unicode hex="0058"/>
  <outline>
    <contour>
      <point x="-11" y="710" type="line"/>
      <point x="212" y="350" type="line"/>
      <point x="-3" y="0" type="line"/>
      <point x="208" y="0" type="line"/>
      <point x="329" y="214" type="line"/>
      <point x="450" y="0" type="line"/>
      <point x="660" y="0" type="line"/>
      <point x="445" y="350" type="line"/>
      <point x="668" y="710" type="line"/>
      <point x="458" y="710" type="line"/>
      <point x="329" y="486" type="line"/>
      <point x="200" y="710" type="line"/>
    </contour>
  </outline>
</glyph>
<glyph name="Y" format="1">
  <advance width="666"/>
  <unicode hex="0059"/>
  <outline>
    <contour>
      <point x="-6" y="710" type="line"/>
      <point x="235" y="237" type="line"/>
      <point x="235" y="0" type="line"/>
      <point x="429" y="0" type="line"/>
      <point x="429" y="235" type="line"/>
      <point x="674" y="710" type="line"/>
      <point x="462" y="710" type="line"/>
      <point x="332" y="420" type="line"/>
      <point x="205" y="710" type="line"/>
    </contour>
    <contour>
      <point x="332" y="710" type="move" name="top"/>
    </contour>
    <contour>
      <point x="333" y="0" type="move" name="bottom"/>
    </contour>
    <contour>
      <point x="20" y="710" type="move" name="topleft"/>
    </contour>
  </outline>
</glyph>
<glyph name="Z" format="1">
  <advance width="622"/>
  <unicode hex="005A"/>
  <outline>
    <contour>
      <point x="27" y="0" type="line"/>
      <point x="590" y="0" type="line"/>
      <point x="590" y="170" type="line"/>
      <point x="282" y="170" type="line"/>
      <point x="584" y="565" type="line"/>
      <point x="584" y="710" type="line"/>
      <point x="42" y="710" type="line"/>
      <point x="42" y="540" type="line"/>
      <point x="349" y="540" type="line"/>
      <point x="27" y="145" type="line"/>
    </contour>
    <contour>
      <point x="320" y="710" type="move" name="top"/>
    </contour>
    <contour>
      <point x="311" y="0" type="move" name="bottom"/>
    </contour>
  </outline>
</glyph>
<glyph name="a" format="1">
  <advance width="599"/>
  <unicode hex="0061"/>
  <outline>
    <contour>
      <point x="19" y="62"/>
      <point x="98" y="-10"/>
      <point x="203" y="-10" type="curve" smooth="yes"/>
      <point x="272" y="-10"/>
      <point x="335" y="22"/>
      <point x="382" y="82" type="curve"/>
      <point x="386" y="63" type="line" smooth="yes"/>
      <point x="396" y="15"/>
      <point x="430" y="-10"/>
      <point x="498" y="-10" type="curve" smooth="yes"/>
      <point x="519" y="-10"/>
      <point x="547" y="-7"/>
      <point x="578" y="0" type="curve"/>
      <point x="578" y="160" type="line"/>
      <point x="551" y="162"/>
      <point x="542" y="174"/>
      <point x="542" y="210" type="curve" smooth="yes"/>
      <point x="542" y="312" type="line" smooth="yes"/>
      <point x="542" y="460"/>
      <point x="447" y="536"/>
      <point x="280" y="536" type="curve" smooth="yes"/>
      <point x="190" y="536"/>
      <point x="113" y="514"/>
      <point x="43" y="469" type="curve"/>
      <point x="98" y="351" type="line"/>
      <point x="154" y="388"/>
      <point x="202" y="408"/>
      <point x="261" y="408" type="curve" smooth="yes"/>
      <point x="325" y="408"/>
      <point x="352" y="384"/>
      <point x="352" y="335" type="curve" smooth="yes"/>
      <point x="352" y="319" type="line"/>
      <point x="325" y="332"/>
      <point x="287" y="339"/>
      <point x="246" y="339" type="curve" smooth="yes"/>
      <point x="113" y="339"/>
      <point x="19" y="265"/>
      <point x="19" y="159" type="curve" smooth="yes"/>
    </contour>
    <contour>
      <point x="309" y="134"/>
      <point x="283" y="126"/>
      <point x="260" y="126" type="curve" smooth="yes"/>
      <point x="224" y="126"/>
      <point x="198" y="147"/>
      <point x="198" y="176" type="curve" smooth="yes"/>
      <point x="198" y="210"/>
      <point x="233" y="236"/>
      <point x="279" y="236" type="curve" smooth="yes"/>
      <point x="300" y="236"/>
      <point x="330" y="230"/>
      <point x="352" y="222" type="curve"/>
      <point x="352" y="183" type="line" smooth="yes"/>
      <point x="352" y="170"/>
      <point x="342" y="156"/>
      <point x="327" y="146" type="curve" smooth="yes"/>
    </contour>
    <contour>
      <point x="578" y="0" type="move" name="ogonek"/>
    </contour>
    <contour>
      <point x="299" y="0" type="move" name="bottom"/>
    </contour>
    <contour>
      <point x="280" y="526" type="move" name="top"/>
    </contour>
  </outline>
</glyph>
<glyph name="d" format="1">
  <advance width="665"/>
  <unicode hex="0064"/>
  <outline>
    <contour>
      <point x="20" y="103"/>
      <point x="123" y="-10"/>
      <point x="268" y="-10" type="curve" smooth="yes"/>
      <point x="337" y="-10"/>
      <point x="403" y="18"/>
      <point x="439" y="82" type="curve"/>
      <point x="443" y="63" type="line" smooth="yes"/>
      <point x="453" y="14"/>
      <point x="491" y="-10"/>
      <point x="555" y="-10" type="curve" smooth="yes"/>
      <point x="575" y="-10"/>
      <point x="601" y="-7"/>
      <point x="635" y="0" type="curve"/>
      <point x="635" y="160" type="line"/>
      <point x="608" y="162"/>
      <point x="599" y="174"/>
      <point x="599" y="210" type="curve" smooth="yes"/>
      <point x="599" y="730" type="line"/>
      <point x="409" y="730" type="line"/>
      <point x="409" y="448" type="line"/>
      <point x="379" y="503"/>
      <point x="318" y="536"/>
      <point x="250" y="536" type="curve" smooth="yes"/>
      <point x="115" y="536"/>
      <point x="20" y="419"/>
      <point x="20" y="264" type="curve" smooth="yes"/>
    </contour>
    <contour>
      <point x="385" y="168"/>
      <point x="356" y="150"/>
      <point x="320" y="150" type="curve" smooth="yes"/>
      <point x="258" y="150"/>
      <point x="216" y="194"/>
      <point x="216" y="260" type="curve" smooth="yes"/>
      <point x="216" y="324"/>
      <point x="257" y="376"/>
      <point x="312" y="376" type="curve" smooth="yes"/>
      <point x="352" y="376"/>
      <point x="392" y="344"/>
      <point x="410" y="298" type="curve"/>
      <point x="410" y="204" type="line"/>
    </contour>
    <contour>
      <point x="333" y="0" type="move" name="bottom"/>
    </contour>
    <contour>
      <point x="333" y="526" type="move" name="top"/>
    </contour>
    <contour>
      <point x="658" y="526" type="move" name="topright"/>
    </contour>
    <contour>
      <point x="333" y="263" type="move" name="center"/>
    </contour>
  </outline>
</glyph>
<glyph name="i" format="1">
  <advance width="286"/>
  <unicode hex="0069"/>
  <outline>
    <contour>
      <point x="238" y="0" type="line"/>
      <point x="238" y="526" type="line"/>
      <point x="48" y="526" type="line"/>
      <point x="48" y="0" type="line"/>
    </contour>
    <contour>
      <point x="238" y="570" type="line"/>
      <point x="238" y="730" type="line"/>
      <point x="48" y="730" type="line"/>
      <point x="48" y="570" type="line"/>
    </contour>
    <contour>
      <point x="238" y="0" type="move" name="ogonek"/>
    </contour>
    <contour>
      <point x="143" y="0" type="move" name="bottom"/>
    </contour>
  </outline>
</glyph>
<glyph name="k" format="1">
  <advance width="582"/>
  <unicode hex="006B"/>
  <outline>
    <contour>
      <point x="596" y="0" type="line"/>
      <point x="397" y="296" type="line"/>
      <point x="578" y="526" type="line"/>
      <point x="378" y="526" type="line"/>
      <point x="238" y="331" type="line"/>
      <point x="238" y="730" type="line"/>
      <point x="48" y="730" type="line"/>
      <point x="48" y="0" type="line"/>
      <point x="238" y="0" type="line"/>
      <point x="238" y="150" type="line"/>
      <point x="276" y="192" type="line"/>
      <point x="395" y="0" type="line"/>
    </contour>
    <contour>
      <point x="300" y="0" type="move" name="bottom"/>
    </contour>
  </outline>
</glyph>
<glyph name="l" format="1">
  <advance width="355"/>
  <unicode hex="006C"/>
  <outline>
    <contour>
      <point x="44" y="142" type="line" smooth="yes"/>
      <point x="44" y="44"/>
      <point x="101" y="-10"/>
      <point x="202" y="-10" type="curve" smooth="yes"/>
      <point x="252" y="-10"/>
      <point x="314" y="3"/>
      <point x="359" y="24" type="curve"/>
      <point x="335" y="164" type="line"/>
      <point x="319" y="155"/>
      <point x="299" y="149"/>
      <point x="283" y="149" type="curve" smooth="yes"/>
      <point x="251" y="149"/>
      <point x="234" y="170"/>
      <point x="234" y="209" type="curve" smooth="yes"/>
      <point x="234" y="730" type="line"/>
      <point x="44" y="730" type="line"/>
    </contour>
    <contour>
      <point x="202" y="0" type="move" name="bottom"/>
    </contour>
    <contour>
      <point x="139" y="710" type="move" name="top"/>
    </contour>
    <contour>
      <point x="309" y="526" type="move" name="topright"/>
    </contour>
    <contour>
      <point x="178" y="263" type="move" name="center"/>
    </contour>
  </outline>
</glyph>
<glyph name="s" format="1">
  <advance width="501"/>
  <unicode hex="0073"/>
  <outline>
    <contour>
      <point x="393" y="-10"/>
      <point x="477" y="56"/>
      <point x="477" y="167" type="curve" smooth="yes"/>
      <point x="477" y="261"/>
      <point x="417" y="292"/>
      <point x="282" y="333" type="curve" smooth="yes"/>
      <point x="235" y="346"/>
      <point x="215" y="354"/>
      <point x="215" y="374" type="curve" smooth="yes"/>
      <point x="215" y="393"/>
      <point x="230" y="402"/>
      <point x="257" y="402" type="curve" smooth="yes"/>
      <point x="293" y="402"/>
      <point x="336" y="386"/>
      <point x="403" y="345" type="curve"/>
      <point x="475" y="461" type="line"/>
      <point x="408" y="518"/>
      <point x="335" y="537"/>
      <point x="265" y="537" type="curve" smooth="yes"/>
      <point x="123" y="537"/>
      <point x="39" y="460"/>
      <point x="39" y="352" type="curve" smooth="yes"/>
      <point x="39" y="259"/>
      <point x="100" y="235"/>
      <point x="225" y="191" type="curve" smooth="yes"/>
      <point x="273" y="176"/>
      <point x="294" y="168"/>
      <point x="294" y="151" type="curve" smooth="yes"/>
      <point x="294" y="134"/>
      <point x="281" y="127"/>
      <point x="253" y="127" type="curve" smooth="yes"/>
      <point x="203" y="127"/>
      <point x="141" y="152"/>
      <point x="76" y="195" type="curve"/>
      <point x="11" y="78" type="line"/>
      <point x="72" y="21"/>
      <point x="167" y="-10"/>
      <point x="259" y="-10" type="curve" smooth="yes"/>
    </contour>
    <contour>
      <point x="259" y="526" type="move" name="top"/>
    </contour>
    <contour>
      <point x="262" y="0" type="move" name="bottom"/>
    </contour>
  </outline>
</glyph>
<glyph name="v" format="1">
  <advance width="563"/>
  <unicode hex="0076"/>
  <outline>
    <contour>
      <point x="385" y="0" type="line"/>
      <point x="562" y="526" type="line"/>
      <point x="385" y="526" type="line"/>
      <point x="290" y="169" type="line"/>
      <point x="196" y="526" type="line"/>
      <point x="1" y="526" type="line"/>
      <point x="178" y="0" type="line"/>
    </contour>
  </outline>
</glyph>
<glyph name="w" format="1">
  <advance width="862"/>
  <unicode hex="0077"/>
  <outline>
    <contour>
      <point x="568" y="178" type="line"/>
      <point x="533" y="296" type="line"/>
      <point x="629" y="526" type="line"/>
      <point x="476" y="526" type="line"/>
      <point x="431" y="372" type="line"/>
      <point x="386" y="526" type="line"/>
      <point x="233" y="526" type="line"/>
      <point x="329" y="296" type="line"/>
      <point x="294" y="178" type="line"/>
      <point x="169" y="526" type="line"/>
      <point x="-10" y="526" type="line"/>
      <point x="205" y="0" type="line"/>
      <point x="360" y="0" type="line"/>
      <point x="431" y="200" type="line"/>
      <point x="502" y="0" type="line"/>
      <point x="657" y="0" type="line"/>
      <point x="872" y="526" type="line"/>
      <point x="693" y="526" type="line"/>
    </contour>
    <contour>
      <point x="431" y="526" type="move" name="top"/>
    </contour>
  </outline>
</glyph>
<glyph name="x" format="1">
  <advance width="554"/>
  <unicode hex="0078"/>
  <outline>
    <contour>
      <point x="-1" y="526" type="line"/>
      <point x="168" y="261" type="line"/>
      <point x="-6" y="0" type="line"/>
      <point x="187" y="0" type="line"/>
      <point x="268" y="129" type="line"/>
      <point x="277" y="149" type="line"/>
      <point x="286" y="129" type="line"/>
      <point x="367" y="0" type="line"/>
      <point x="560" y="0" type="line"/>
      <point x="386" y="266" type="line"/>
      <point x="555" y="526" type="line"/>
      <point x="362" y="526" type="line"/>
      <point x="287" y="397" type="line"/>
      <point x="277" y="376" type="line"/>
      <point x="267" y="397" type="line"/>
      <point x="192" y="526" type="line"/>
    </contour>
  </outline>
</glyph>
<glyph name="y" format="1">
  <advance width="555"/>
  <unicode hex="0079"/>
  <outline>
    <contour>
      <point x="44" y="-215" type="line"/>
      <point x="76" y="-228"/>
      <point x="109" y="-234"/>
      <point x="142" y="-234" type="curve" smooth="yes"/>
      <point x="250" y="-234"/>
      <point x="342" y="-166"/>
      <point x="373" y="-63" type="curve" smooth="yes"/>
      <point x="551" y="526" type="line"/>
      <point x="374" y="526" type="line"/>
      <point x="293" y="195" type="line"/>
      <point x="193" y="526" type="line"/>
      <point x="-2" y="526" type="line"/>
      <point x="189" y="0" type="line"/>
      <point x="185" y="-47"/>
      <point x="163" y="-70"/>
      <point x="122" y="-70" type="curve" smooth="yes"/>
      <point x="101" y="-70"/>
      <point x="74" y="-64"/>
      <point x="44" y="-53" type="curve"/>
    </contour>
    <contour>
      <point x="293" y="526" type="move" name="top"/>
    </contour>
    <contour>
      <point x="498" y="0" type="move" name="bottom"/>
    </contour>
  </outline>
</glyph>
<glyph name="copyright" format="1">
  <advance width="847"/>
  <unicode hex="00A9"/>
  <outline>
    <contour>
      <point x="419" y="-7" type="curve" smooth="yes"/>
      <point x="644" y="-7"/>
      <point x="810" y="148"/>
      <point x="810" y="355" type="curve" smooth="yes"/>
      <point x="810" y="561"/>
      <point x="644" y="715"/>
      <point x="419" y="715" type="curve" smooth="yes"/>
      <point x="200" y="715"/>
      <point x="38" y="561"/>
      <point x="38" y="355" type="curve" smooth="yes"/>
      <point x="38" y="148"/>
      <point x="200" y="-7"/>
    </contour>
    <contour>
      <point x="419" y="57" type="curve" smooth="yes"/>
      <point x="241" y="57"/>
      <point x="108" y="189"/>
      <point x="108" y="355" type="curve" smooth="yes"/>
      <point x="108" y="519"/>
      <point x="242" y="651"/>
      <point x="419" y="651" type="curve" smooth="yes"/>
      <point x="603" y="651"/>
      <point x="740" y="519"/>
      <point x="740" y="355" type="curve" smooth="yes"/>
      <point x="740" y="179"/>
      <point x="599" y="57"/>
    </contour>
    <contour>
      <point x="429" y="120" type="curve" smooth="yes"/>
      <point x="546" y="120"/>
      <point x="627" y="177"/>
      <point x="666" y="258" type="curve"/>
      <point x="488" y="312" type="line"/>
      <point x="474" y="288"/>
      <point x="454" y="274"/>
      <point x="428" y="274" type="curve" smooth="yes"/>
      <point x="389" y="274"/>
      <point x="357" y="303"/>
      <point x="357" y="354" type="curve" smooth="yes"/>
      <point x="357" y="405"/>
      <point x="389" y="434"/>
      <point x="428" y="434" type="curve" smooth="yes"/>
      <point x="454" y="434"/>
      <point x="474" y="420"/>
      <point x="488" y="396" type="curve"/>
      <point x="666" y="450" type="line"/>
      <point x="627" y="531"/>
      <point x="546" y="588"/>
      <point x="429" y="588" type="curve" smooth="yes"/>
      <point x="261" y="588"/>
      <point x="170" y="478"/>
      <point x="170" y="354" type="curve" smooth="yes"/>
      <point x="170" y="230"/>
      <point x="261" y="120"/>
    </contour>
  </outline>
</glyph>
<glyph name="registered" format="1">
  <advance width="847"/>
  <unicode hex="00AE"/>
  <outline>
    <contour>
      <point x="421" y="-7" type="curve" smooth="yes"/>
      <point x="643" y="-7"/>
      <point x="810" y="148"/>
      <point x="810" y="355" type="curve" smooth="yes"/>
      <point x="810" y="561"/>
      <point x="643" y="715"/>
      <point x="421" y="715" type="curve" smooth="yes"/>
      <point x="199" y="715"/>
      <point x="38" y="561"/>
      <point x="38" y="355" type="curve" smooth="yes"/>
      <point x="38" y="148"/>
      <point x="199" y="-7"/>
    </contour>
    <contour>
      <point x="422" y="56" type="curve" smooth="yes"/>
      <point x="240" y="56"/>
      <point x="112" y="189"/>
      <point x="112" y="354" type="curve" smooth="yes"/>
      <point x="112" y="519"/>
      <point x="240" y="651"/>
      <point x="422" y="651" type="curve" smooth="yes"/>
      <point x="603" y="651"/>
      <point x="736" y="519"/>
      <point x="736" y="352" type="curve" smooth="yes"/>
      <point x="736" y="182"/>
      <point x="599" y="56"/>
    </contour>
    <contour>
      <point x="251" y="144" type="line"/>
      <point x="383" y="144" type="line"/>
      <point x="383" y="275" type="line"/>
      <point x="401" y="275" type="line"/>
      <point x="482" y="144" type="line"/>
      <point x="629" y="144" type="line"/>
      <point x="533" y="301" type="line"/>
      <point x="570" y="328"/>
      <point x="595" y="375"/>
      <point x="595" y="422" type="curve" smooth="yes"/>
      <point x="595" y="495"/>
      <point x="534" y="572"/>
      <point x="450" y="572" type="curve" smooth="yes"/>
      <point x="251" y="572" type="line"/>
    </contour>
    <contour>
      <point x="383" y="381" type="line"/>
      <point x="383" y="463" type="line"/>
      <point x="434" y="463" type="line" smooth="yes"/>
      <point x="448" y="463"/>
      <point x="465" y="458"/>
      <point x="465" y="422" type="curve" smooth="yes"/>
      <point x="465" y="389"/>
      <point x="451" y="381"/>
      <point x="436" y="381" type="curve" smooth="yes"/>
    </contour>
  </outline>
</glyph>
<glyph name="twosuperior" format="1">
  <advance width="441"/>
  <unicode hex="00B2"/>
  <outline>
    <contour>
      <point x="394" y="376" type="line"/>
      <point x="394" y="483" type="line"/>
      <point x="207" y="483" type="line"/>
      <point x="207" y="509"/>
      <point x="239" y="522"/>
      <point x="287" y="535" type="curve" smooth="yes"/>
      <point x="338" y="549"/>
      <point x="412" y="586"/>
      <point x="412" y="676" type="curve" smooth="yes"/>
      <point x="412" y="772"/>
      <point x="347" y="821"/>
      <point x="232" y="821" type="curve" smooth="yes"/>
      <point x="131" y="821"/>
      <point x="57" y="789"/>
      <point x="28" y="751" type="curve"/>
      <point x="96" y="671" type="line"/>
      <point x="122" y="694"/>
      <point x="165" y="715"/>
      <point x="216" y="715" type="curve" smooth="yes"/>
      <point x="260" y="715"/>
      <point x="288" y="707"/>
      <point x="288" y="677" type="curve" smooth="yes"/>
      <point x="288" y="633"/>
      <point x="224" y="613"/>
      <point x="160" y="586" type="curve" smooth="yes"/>
      <point x="53" y="541"/>
      <point x="26" y="490"/>
      <point x="26" y="376" type="curve"/>
    </contour>
  </outline>
</glyph>
<glyph name="threesuperior" format="1">
  <advance width="422"/>
  <unicode hex="00B3"/>
  <outline>
    <contour>
      <point x="194" y="369" type="curve" smooth="yes"/>
      <point x="292" y="369"/>
      <point x="393" y="404"/>
      <point x="393" y="497" type="curve" smooth="yes"/>
      <point x="393" y="553"/>
      <point x="352" y="602"/>
      <point x="285" y="611" type="curve"/>
      <point x="345" y="620"/>
      <point x="383" y="653"/>
      <point x="383" y="701" type="curve" smooth="yes"/>
      <point x="383" y="769"/>
      <point x="304" y="821"/>
      <point x="199" y="821" type="curve" smooth="yes"/>
      <point x="130" y="821"/>
      <point x="56" y="802"/>
      <point x="21" y="765" type="curve"/>
      <point x="90" y="676" type="line"/>
      <point x="118" y="702"/>
      <point x="148" y="720"/>
      <point x="200" y="720" type="curve" smooth="yes"/>
      <point x="224" y="720"/>
      <point x="267" y="716"/>
      <point x="267" y="694" type="curve" smooth="yes"/>
      <point x="267" y="664"/>
      <point x="210" y="654"/>
      <point x="133" y="654" type="curve" smooth="yes"/>
      <point x="109" y="654" type="line"/>
      <point x="109" y="555" type="line"/>
      <point x="134" y="555" type="line" smooth="yes"/>
      <point x="227" y="555"/>
      <point x="282" y="545"/>
      <point x="282" y="514" type="curve" smooth="yes"/>
      <point x="282" y="488"/>
      <point x="240" y="479"/>
      <point x="192" y="479" type="curve" smooth="yes"/>
      <point x="129" y="479"/>
      <point x="97" y="508"/>
      <point x="80" y="524" type="curve"/>
      <point x="23" y="440" type="line"/>
      <point x="49" y="391"/>
      <point x="111" y="369"/>
    </contour>
  </outline>
</glyph>
<glyph name="periodcentered" format="1">
  <advance width="254"/>
  <unicode hex="00B7"/>
  <outline>
    <contour>
      <point x="204" y="238" type="line"/>
      <point x="204" y="422" type="line"/>
      <point x="50" y="422" type="line"/>
      <point x="50" y="238" type="line"/>
    </contour>
  </outline>
</glyph>
<glyph name="onesuperior" format="1">
  <advance width="321"/>
  <unicode hex="00B9"/>
  <outline>
    <contour>
      <point x="233" y="485" type="line"/>
      <point x="233" y="821" type="line"/>
      <point x="123" y="821" type="line"/>
      <point x="122" y="819"/>
      <point x="71" y="762"/>
      <point x="30" y="762" type="curve"/>
      <point x="30" y="653" type="line"/>
      <point x="61" y="653"/>
      <point x="109" y="687"/>
      <point x="123" y="706" type="curve"/>
      <point x="123" y="485" type="line"/>
      <point x="47" y="485" type="line"/>
      <point x="47" y="378" type="line"/>
      <point x="300" y="378" type="line"/>
      <point x="300" y="485" type="line"/>
    </contour>
  </outline>
</glyph>
<glyph name="oslash" format="1">
  <advance width="614"/>
  <unicode hex="00F8"/>
  <outline>
    <contour>
      <point x="495" y="-10"/>
      <point x="595" y="119"/>
      <point x="595" y="263" type="curve" smooth="yes"/>
      <point x="595" y="408"/>
      <point x="495" y="536"/>
      <point x="307" y="536" type="curve" smooth="yes"/>
      <point x="119" y="536"/>
      <point x="19" y="408"/>
      <point x="19" y="263" type="curve" smooth="yes"/>
      <point x="19" y="119"/>
      <point x="119" y="-10"/>
      <point x="307" y="-10" type="curve" smooth="yes"/>
    </contour>
    <contour>
      <point x="253" y="150"/>
      <point x="214" y="193"/>
      <point x="214" y="263" type="curve" smooth="yes"/>
      <point x="214" y="333"/>
      <point x="253" y="376"/>
      <point x="307" y="376" type="curve" smooth="yes"/>
      <point x="361" y="376"/>
      <point x="400" y="333"/>
      <point x="400" y="263" type="curve" smooth="yes"/>
      <point x="400" y="193"/>
      <point x="361" y="150"/>
      <point x="307" y="150" type="curve" smooth="yes"/>
    </contour>
    <contour>
      <point x="114" y="-6" type="line"/>
      <point x="211" y="104" type="line"/>
      <point x="149" y="158" type="line"/>
      <point x="14" y="-6" type="line"/>
    </contour>
    <contour>
      <point x="452" y="381" type="line"/>
      <point x="395" y="418" type="line"/>
      <point x="174" y="169" type="line"/>
      <point x="221" y="121" type="line"/>
    </contour>
    <contour>
      <point x="591" y="532" type="line"/>
      <point x="490" y="532" type="line"/>
      <point x="404" y="435" type="line"/>
      <point x="477" y="393" type="line"/>
    </contour>
  </outline>
</glyph>
<glyph name="Dcroat" format="1">
  <advance width="720"/>
  <unicode hex="0110"/>
  <outline>
    <contour>
      <point x="374" y="287" type="line"/>
      <point x="374" y="427" type="line"/>
      <point x="28" y="427" type="line"/>
      <point x="28" y="287" type="line"/>
    </contour>
    <component base="D" xOffset="4"/>
  </outline>
</glyph>
<glyph name="dcroat" format="1">
  <advance width="665"/>
  <unicode hex="0111"/>
  <outline>
    <contour>
      <point x="657" y="579" type="line"/>
      <point x="657" y="688" type="line"/>
      <point x="322" y="688" type="line"/>
      <point x="322" y="579" type="line"/>
    </contour>
    <component base="d"/>
  </outline>
</glyph>
<glyph name="Hbar" format="1">
  <advance width="756"/>
  <unicode hex="0126"/>
  <outline>
    <contour>
      <point x="742" y="538" type="line"/>
      <point x="742" y="626" type="line"/>
      <point x="14" y="626" type="line"/>
      <point x="14" y="538" type="line"/>
    </contour>
    <component base="H" xOffset="3"/>
  </outline>
</glyph>
<glyph name="idotless" format="1">
  <advance width="286"/>
  <unicode hex="0131"/>
  <outline>
    <contour>
      <point x="238" y="0" type="line"/>
      <point x="238" y="526" type="line"/>
      <point x="48" y="526" type="line"/>
      <point x="48" y="0" type="line"/>
    </contour>
    <contour>
      <point x="143" y="526" type="move" name="top"/>
    </contour>
  </outline>
</glyph>
<glyph name="ldot" format="1">
  <advance width="467"/>
  <unicode hex="0140"/>
  <outline>
    <contour>
      <point x="448" y="238" type="line"/>
      <point x="448" y="422" type="line"/>
      <point x="294" y="422" type="line"/>
      <point x="294" y="238" type="line"/>
    </contour>
    <component base="l"/>
    <component base="periodcentered" xOffset="245" yOffset="1"/>
  </outline>
</glyph>
<glyph name="lslash" format="1">
  <advance width="387"/>
  <unicode hex="0142"/>
  <outline>
    <contour>
      <point x="388" y="426" type="line"/>
      <point x="345" y="527" type="line"/>
      <point x="-11" y="353" type="line"/>
      <point x="32" y="252" type="line"/>
    </contour>
    <component base="l" xOffset="28"/>
  </outline>
</glyph>
<glyph name="Tbar" format="1">
  <advance width="646"/>
  <unicode hex="0166"/>
  <outline>
    <contour>
      <point x="575" y="268" type="line"/>
      <point x="575" y="356" type="line"/>
      <point x="71" y="356" type="line"/>
      <point x="71" y="268" type="line"/>
    </contour>
    <component base="T" xOffset="11"/>
  </outline>
</glyph>
<glyph name="tbar" format="1">
  <advance width="424"/>
  <unicode hex="0167"/>
  <outline>
    <contour>
      <point x="368" y="227" type="line"/>
      <point x="368" y="336" type="line"/>
      <point x="27" y="336" type="line"/>
      <point x="27" y="227" type="line"/>
    </contour>
    <component base="t" xOffset="1"/>
  </outline>
</glyph>
<glyph name="apostrophemod" format="1">
  <advance width="284"/>
  <unicode hex="02BC"/>
  <outline>
    <contour>
      <point x="264" y="730" type="line"/>
      <point x="95" y="730" type="line"/>
      <point x="45" y="588" type="line"/>
      <point x="165" y="556" type="line"/>
    </contour>
    <contour>
      <point x="107" y="526" type="move" name="_top"/>
    </contour>
  </outline>
</glyph>
<glyph name="verticallinemod" format="1">
  <advance width="316"/>
  <unicode hex="02C8"/>
  <outline>
    <contour>
      <point x="78" y="775" type="line"/>
      <point x="78" y="391" type="line"/>
      <point x="238" y="391" type="line"/>
      <point x="238" y="775" type="line"/>
    </contour>
  </outline>
</glyph>
<glyph name="firsttonechinese" format="1">
  <advance width="438"/>
  <unicode hex="02C9"/>
  <outline>
    <contour>
      <point x="374" y="607" type="line"/>
      <point x="374" y="720" type="line"/>
      <point x="64" y="720" type="line"/>
      <point x="64" y="607" type="line"/>
    </contour>
    <contour>
      <point x="218" y="526" type="move" name="_top"/>
    </contour>
  </outline>
</glyph>
<glyph name="gravecomb" format="1">
  <advance width="284"/>
  <unicode hex="0300"/>
  <outline>
    <contour>
      <point x="144" y="556" type="line"/>
      <point x="264" y="588" type="line"/>
      <point x="214" y="730" type="line"/>
      <point x="45" y="730" type="line"/>
    </contour>
    <contour>
      <point x="155" y="730" type="move" name="top"/>
    </contour>
    <contour>
      <point x="195" y="526" type="move" name="_top"/>
    </contour>
  </outline>
</glyph>
<glyph name="acutecomb" format="1">
  <advance width="284"/>
  <unicode hex="0301"/>
  <outline>
    <contour>
      <point x="264" y="730" type="line"/>
      <point x="95" y="730" type="line"/>
      <point x="45" y="588" type="line"/>
      <point x="165" y="556" type="line"/>
    </contour>
    <contour>
      <point x="155" y="730" type="move" name="top"/>
    </contour>
    <contour>
      <point x="105" y="526" type="move" name="_top"/>
    </contour>
  </outline>
</glyph>
<glyph name="circumflexcomb" format="1">
  <advance width="402"/>
  <unicode hex="0302"/>
  <outline>
    <contour>
      <point x="116" y="573" type="line"/>
      <point x="201" y="636" type="line"/>
      <point x="286" y="573" type="line"/>
      <point x="382" y="615" type="line"/>
      <point x="269" y="730" type="line"/>
      <point x="133" y="730" type="line"/>
      <point x="20" y="615" type="line"/>
    </contour>
    <contour>
      <point x="201" y="730" type="move" name="top"/>
    </contour>
    <contour>
      <point x="201" y="526" type="move" name="_top"/>
    </contour>
  </outline>
</glyph>
<glyph name="macroncomb" format="1">
  <advance width="438"/>
  <unicode hex="0304"/>
  <outline>
    <contour>
      <point x="374" y="607" type="line"/>
      <point x="374" y="720" type="line"/>
      <point x="64" y="720" type="line"/>
      <point x="64" y="607" type="line"/>
    </contour>
    <contour>
      <point x="219" y="720" type="move" name="top"/>
    </contour>
    <contour>
      <point x="218" y="526" type="move" name="_top"/>
    </contour>
  </outline>
</glyph>
<glyph name="brevecomb" format="1">
  <advance width="368"/>
  <unicode hex="0306"/>
  <outline>
    <contour>
      <point x="184" y="649" type="curve" smooth="yes"/>
      <point x="151" y="649"/>
      <point x="123" y="686"/>
      <point x="123" y="730" type="curve"/>
      <point x="25" y="730" type="line"/>
      <point x="25" y="635"/>
      <point x="90" y="568"/>
      <point x="184" y="568" type="curve" smooth="yes"/>
      <point x="278" y="568"/>
      <point x="343" y="635"/>
      <point x="343" y="730" type="curve"/>
      <point x="245" y="730" type="line"/>
      <point x="241" y="683"/>
      <point x="215" y="649"/>
    </contour>
    <contour>
      <point x="184" y="730" type="move" name="top"/>
    </contour>
    <contour>
      <point x="184" y="526" type="move" name="_top"/>
    </contour>
  </outline>
</glyph>
<glyph name="dotaccentcomb" format="1">
  <advance width="270"/>
  <unicode hex="0307"/>
  <outline>
    <contour>
      <point x="220" y="580" type="line"/>
      <point x="220" y="730" type="line"/>
      <point x="50" y="730" type="line"/>
      <point x="50" y="580" type="line"/>
    </contour>
    <contour>
      <point x="135" y="730" type="move" name="top"/>
    </contour>
    <contour>
      <point x="135" y="526" type="move" name="_top"/>
    </contour>
  </outline>
</glyph>
<glyph name="dieresiscomb" format="1">
  <advance width="566"/>
  <unicode hex="0308"/>
  <outline>
    <contour>
      <point x="246" y="580" type="line"/>
      <point x="246" y="720" type="line"/>
      <point x="90" y="720" type="line"/>
      <point x="90" y="580" type="line"/>
    </contour>
    <contour>
      <point x="476" y="580" type="line"/>
      <point x="476" y="720" type="line"/>
      <point x="320" y="720" type="line"/>
      <point x="320" y="580" type="line"/>
    </contour>
    <contour>
      <point x="283" y="720" type="move" name="top"/>
    </contour>
    <contour>
      <point x="283" y="525" type="move" name="_top"/>
    </contour>
  </outline>
</glyph>
<glyph name="hookabovecomb" format="1">
  <advance width="600"/>
  <unicode hex="0309"/>
  <outline>
    <contour>
      <point x="274" y="693"/>
      <point x="285" y="703"/>
      <point x="304" y="703" type="curve" smooth="yes"/>
      <point x="323" y="703"/>
      <point x="334" y="690"/>
      <point x="334" y="673" type="curve" smooth="yes"/>
      <point x="334" y="655"/>
      <point x="320" y="640"/>
      <point x="298" y="625" type="curve"/>
      <point x="343" y="578" type="line"/>
      <point x="393" y="619"/>
      <point x="417" y="647"/>
      <point x="417" y="701" type="curve" smooth="yes"/>
      <point x="417" y="752"/>
      <point x="378" y="785"/>
      <point x="319" y="785" type="curve" smooth="yes"/>
      <point x="280" y="785"/>
      <point x="244" y="769"/>
      <point x="203" y="726" type="curve"/>
      <point x="254" y="676" type="line"/>
    </contour>
    <contour>
      <point x="310" y="785" type="move" name="top"/>
    </contour>
    <contour>
      <point x="310" y="526" type="move" name="_top"/>
    </contour>
  </outline>
</glyph>
<glyph name="ringcomb" format="1">
  <advance width="274"/>
  <unicode hex="030A"/>
  <outline>
    <contour>
      <point x="20" y="643" type="curve" smooth="yes"/>
      <point x="20" y="585"/>
      <point x="66" y="549"/>
      <point x="137" y="549" type="curve" smooth="yes"/>
      <point x="208" y="549"/>
      <point x="254" y="585"/>
      <point x="254" y="643" type="curve" smooth="yes"/>
      <point x="254" y="701"/>
      <point x="208" y="737"/>
      <point x="137" y="737" type="curve" smooth="yes"/>
      <point x="66" y="737"/>
      <point x="20" y="701"/>
    </contour>
    <contour>
      <point x="137" y="681" type="curve" smooth="yes"/>
      <point x="160" y="681"/>
      <point x="177" y="663"/>
      <point x="177" y="644" type="curve" smooth="yes"/>
      <point x="177" y="624"/>
      <point x="159" y="605"/>
      <point x="137" y="605" type="curve" smooth="yes"/>
      <point x="114" y="605"/>
      <point x="97" y="624"/>
      <point x="97" y="644" type="curve" smooth="yes"/>
      <point x="97" y="663"/>
      <point x="114" y="681"/>
    </contour>
    <contour>
      <point x="137" y="730" type="move" name="top"/>
    </contour>
    <contour>
      <point x="137" y="526" type="move" name="_top"/>
    </contour>
  </outline>
</glyph>
<glyph name="hungarumlautcomb" format="1">
  <advance width="399"/>
  <unicode hex="030B"/>
  <outline>
    <contour>
      <point x="204" y="730" type="line"/>
      <point x="65" y="730" type="line"/>
      <point x="25" y="588" type="line"/>
      <point x="115" y="556" type="line"/>
    </contour>
    <contour>
      <point x="394" y="730" type="line"/>
      <point x="255" y="730" type="line"/>
      <point x="215" y="588" type="line"/>
      <point x="305" y="556" type="line"/>
    </contour>
    <contour>
      <point x="178" y="525" type="move" name="_top"/>
    </contour>
  </outline>
</glyph>
<glyph name="caroncomb" format="1">
  <advance width="402"/>
  <unicode hex="030C"/>
  <outline>
    <contour>
      <point x="20" y="688" type="line"/>
      <point x="133" y="573" type="line"/>
      <point x="269" y="573" type="line"/>
      <point x="382" y="688" type="line"/>
      <point x="286" y="730" type="line"/>
      <point x="201" y="667" type="line"/>
      <point x="116" y="730" type="line"/>
    </contour>
    <contour>
      <point x="201" y="730" type="move" name="top"/>
    </contour>
    <contour>
      <point x="201" y="526" type="move" name="_top"/>
    </contour>
  </outline>
</glyph>
<glyph name="dblgravecomb" format="1">
  <advance width="399"/>
  <unicode hex="030F"/>
  <outline>
    <contour>
      <point x="284" y="556" type="line"/>
      <point x="374" y="588" type="line"/>
      <point x="334" y="730" type="line"/>
      <point x="195" y="730" type="line"/>
    </contour>
    <contour>
      <point x="94" y="556" type="line"/>
      <point x="184" y="588" type="line"/>
      <point x="144" y="730" type="line"/>
      <point x="5" y="730" type="line"/>
    </contour>
    <contour>
      <point x="222" y="525" type="move" name="_top"/>
    </contour>
  </outline>
</glyph>
<glyph name="commaturnedabovecomb" format="1">
  <advance width="241"/>
  <unicode hex="0312"/>
  <outline>
    <contour>
      <point x="74" y="730" type="line"/>
      <point x="20" y="671" type="line"/>
      <point x="20" y="575" type="line"/>
      <point x="177" y="575" type="line"/>
      <point x="177" y="671" type="line"/>
      <point x="120" y="671" type="line"/>
      <point x="156" y="730" type="line"/>
    </contour>
    <contour>
      <point x="99" y="730" type="move" name="top"/>
    </contour>
    <contour>
      <point x="99" y="526" type="move" name="_top"/>
    </contour>
  </outline>
</glyph>
<glyph name="horncomb" format="1">
  <advance width="600"/>
  <unicode hex="031B"/>
  <outline>
    <contour>
      <point x="293" y="470"/>
      <point x="377" y="494"/>
      <point x="411" y="526" type="curve" smooth="yes"/>
      <point x="463" y="575"/>
      <point x="463" y="640"/>
      <point x="463" y="692" type="curve"/>
      <point x="334" y="692" type="line"/>
      <point x="333" y="666"/>
      <point x="336" y="640"/>
      <point x="317" y="621" type="curve" smooth="yes"/>
      <point x="298" y="602"/>
      <point x="265" y="598"/>
      <point x="218" y="598" type="curve"/>
      <point x="216" y="470" type="line"/>
    </contour>
    <contour>
      <point x="321" y="526" type="move" name="_topright"/>
    </contour>
    <contour>
      <point x="321" y="526" type="move" name="topright"/>
    </contour>
  </outline>
</glyph>
<glyph name="dotbelowcomb" format="1">
  <advance width="270"/>
  <unicode hex="0323"/>
  <outline>
    <contour>
      <point x="220" y="-214" type="line"/>
      <point x="220" y="-64" type="line"/>
      <point x="50" y="-64" type="line"/>
      <point x="50" y="-214" type="line"/>
    </contour>
    <contour>
      <point x="135" y="0" type="move" name="_bottom"/>
    </contour>
    <contour>
      <point x="135" y="-214" type="move" name="bottom"/>
    </contour>
  </outline>
</glyph>
<glyph name="dieresisbelowcomb" format="1">
  <advance width="566"/>
  <unicode hex="0324"/>
  <outline>
    <contour>
      <point x="246" y="-214" type="line"/>
      <point x="246" y="-74" type="line"/>
      <point x="90" y="-74" type="line"/>
      <point x="90" y="-214" type="line"/>
    </contour>
    <contour>
      <point x="476" y="-214" type="line"/>
      <point x="476" y="-74" type="line"/>
      <point x="320" y="-74" type="line"/>
      <point x="320" y="-214" type="line"/>
    </contour>
    <contour>
      <point x="283" y="0" type="move" name="_bottom"/>
    </contour>
    <contour>
      <point x="283" y="-214" type="move" name="bottom"/>
    </contour>
  </outline>
</glyph>
<glyph name="commaaccentcomb" format="1">
  <advance width="241"/>
  <unicode hex="0326"/>
  <outline>
    <contour>
      <point x="167" y="-213" type="line"/>
      <point x="221" y="-152" type="line"/>
      <point x="221" y="-46" type="line"/>
      <point x="64" y="-46" type="line"/>
      <point x="64" y="-152" type="line"/>
      <point x="121" y="-152" type="line"/>
      <point x="85" y="-213" type="line"/>
    </contour>
    <contour>
      <point x="146" y="0" type="move" name="_bottom"/>
    </contour>
  </outline>
</glyph>
<glyph name="cedillacomb" format="1">
  <advance width="298"/>
  <unicode hex="0327"/>
  <outline>
    <contour>
      <point x="230" y="-220"/>
      <point x="268" y="-166"/>
      <point x="268" y="-107" type="curve" smooth="yes"/>
      <point x="268" y="-44"/>
      <point x="225" y="-2"/>
      <point x="175" y="36" type="curve"/>
      <point x="115" y="0" type="line"/>
      <point x="142" y="-23"/>
      <point x="157" y="-46"/>
      <point x="157" y="-69" type="curve" smooth="yes"/>
      <point x="157" y="-94"/>
      <point x="139" y="-108"/>
      <point x="115" y="-108" type="curve" smooth="yes"/>
      <point x="100" y="-108"/>
      <point x="82" y="-102"/>
      <point x="67" y="-89" type="curve"/>
      <point x="23" y="-186" type="line"/>
      <point x="66" y="-209"/>
      <point x="110" y="-220"/>
      <point x="147" y="-220" type="curve" smooth="yes"/>
    </contour>
    <contour>
      <point x="162" y="0" type="move" name="_bottom"/>
    </contour>
  </outline>
</glyph>
<glyph name="ogonekcomb" format="1">
  <advance width="332"/>
  <unicode hex="0328"/>
  <outline>
    <contour>
      <point x="74" y="-161"/>
      <point x="123" y="-202"/>
      <point x="226" y="-214" type="curve"/>
      <point x="261" y="-114" type="line"/>
      <point x="213" y="-114"/>
      <point x="191" y="-99"/>
      <point x="191" y="-77" type="curve" smooth="yes"/>
      <point x="191" y="-54"/>
      <point x="217" y="-26"/>
      <point x="263" y="1" type="curve"/>
      <point x="250" y="25" type="line"/>
      <point x="187" y="25" type="line"/>
      <point x="112" y="-13"/>
      <point x="74" y="-66"/>
      <point x="74" y="-114" type="curve" smooth="yes"/>
    </contour>
    <contour>
      <point x="263" y="1" type="move" name="_ogonek"/>
    </contour>
  </outline>
</glyph>
<glyph name="brevebelowcomb" format="1">
  <advance width="368"/>
  <unicode hex="032E"/>
  <outline>
    <contour>
      <point x="184" y="-132" type="curve" smooth="yes"/>
      <point x="151" y="-132"/>
      <point x="123" y="-95"/>
      <point x="123" y="-51" type="curve"/>
      <point x="25" y="-51" type="line"/>
      <point x="25" y="-146"/>
      <point x="90" y="-213"/>
      <point x="184" y="-213" type="curve" smooth="yes"/>
      <point x="278" y="-213"/>
      <point x="343" y="-146"/>
      <point x="343" y="-51" type="curve"/>
      <point x="245" y="-51" type="line"/>
      <point x="241" y="-98"/>
      <point x="215" y="-132"/>
    </contour>
    <contour>
      <point x="184" y="0" type="move" name="_bottom"/>
    </contour>
    <contour>
      <point x="184" y="-213" type="move" name="bottom"/>
    </contour>
  </outline>
</glyph>
<glyph name="macronbelowcomb" format="1">
  <advance width="438"/>
  <unicode hex="0331"/>
  <outline>
    <contour>
      <point x="374" y="-187" type="line"/>
      <point x="374" y="-74" type="line"/>
      <point x="64" y="-74" type="line"/>
      <point x="64" y="-187" type="line"/>
    </contour>
    <contour>
      <point x="219" y="0" type="move" name="_bottom"/>
    </contour>
    <contour>
      <point x="219" y="-187" type="move" name="bottom"/>
    </contour>
  </outline>
</glyph>
<glyph name="strokeshortcomb" format="1">
  <advance width="441"/>
  <unicode hex="0335"/>
  <outline>
    <contour>
      <point x="391" y="227" type="line"/>
      <point x="391" y="336" type="line"/>
      <point x="50" y="336" type="line"/>
      <point x="50" y="227" type="line"/>
    </contour>
    <contour>
      <point x="221" y="282" type="move" name="_center"/>
    </contour>
  </outline>
</glyph>
<glyph name="Dzhe-cy" format="1">
  <advance width="727"/>
  <unicode hex="040F"/>
  <outline>
    <contour>
      <point x="64" y="0" type="line"/>
      <point x="663" y="0" type="line"/>
      <point x="663" y="710" type="line"/>
      <point x="468" y="710" type="line"/>
      <point x="468" y="170" type="line"/>
      <point x="259" y="170" type="line"/>
      <point x="259" y="710" type="line"/>
      <point x="64" y="710" type="line"/>
    </contour>
    <contour>
      <point x="273" y="-166" type="line"/>
      <point x="453" y="-166" type="line"/>
      <point x="453" y="29" type="line"/>
      <point x="273" y="29" type="line"/>
    </contour>
  </outline>
</glyph>
<glyph name="De-cy" format="1">
  <advance width="808"/>
  <unicode hex="0414"/>
  <outline>
    <contour>
      <point x="16" y="-166" type="line"/>
      <point x="206" y="-166" type="line"/>
      <point x="206" y="0" type="line"/>
      <point x="598" y="0" type="line"/>
      <point x="598" y="-166" type="line"/>
      <point x="788" y="-166" type="line"/>
      <point x="788" y="170" type="line"/>
      <point x="688" y="170" type="line"/>
      <point x="688" y="710" type="line"/>
      <point x="192" y="710" type="line"/>
      <point x="173" y="502" type="line" smooth="yes"/>
      <point x="150" y="256"/>
      <point x="127" y="170"/>
      <point x="60" y="170" type="curve" smooth="yes"/>
      <point x="16" y="170" type="line"/>
    </contour>
    <contour>
      <point x="301" y="170" type="line"/>
      <point x="328" y="236"/>
      <point x="347" y="325"/>
      <point x="358" y="444" type="curve" smooth="yes"/>
      <point x="367" y="540" type="line"/>
      <point x="493" y="540" type="line"/>
      <point x="493" y="170" type="line"/>
    </contour>
  </outline>
</glyph>
<glyph name="Zhe-cy" format="1">
  <advance width="1057"/>
  <unicode hex="0416"/>
  <outline>
    <contour>
      <point x="-23" y="0" type="line"/>
      <point x="194" y="0" type="line"/>
      <point x="399" y="262" type="line"/>
      <point x="431" y="262" type="line"/>
      <point x="431" y="0" type="line"/>
      <point x="626" y="0" type="line"/>
      <point x="626" y="262" type="line"/>
      <point x="658" y="262" type="line"/>
      <point x="863" y="0" type="line"/>
      <point x="1080" y="0" type="line"/>
      <point x="800" y="367" type="line"/>
      <point x="1057" y="710" type="line"/>
      <point x="837" y="710" type="line"/>
      <point x="641" y="439" type="line"/>
      <point x="626" y="439" type="line"/>
      <point x="626" y="710" type="line"/>
      <point x="431" y="710" type="line"/>
      <point x="431" y="439" type="line"/>
      <point x="416" y="439" type="line"/>
      <point x="220" y="710" type="line"/>
      <point x="0" y="710" type="line"/>
      <point x="257" y="367" type="line"/>
    </contour>
  </outline>
</glyph>
<glyph name="Ii-cy" format="1">
  <advance width="769"/>
  <unicode hex="0418"/>
  <outline>
    <contour>
      <point x="260" y="710" type="line"/>
      <point x="65" y="710" type="line" smooth="yes"/>
      <point x="65" y="0" type="line"/>
      <point x="210" y="0" type="line"/>
      <point x="509" y="394" type="line"/>
      <point x="509" y="0" type="line"/>
      <point x="704" y="0" type="line"/>
      <point x="704" y="710" type="line"/>
      <point x="562" y="710" type="line"/>
      <point x="260" y="304" type="line"/>
    </contour>
  </outline>
</glyph>
<glyph name="Iishort-cy" format="1">
  <advance width="769"/>
  <unicode hex="0419"/>
  <outline>
    <contour>
      <point x="492" y="916" type="line"/>
      <point x="486" y="881"/>
      <point x="447" y="855"/>
      <point x="401" y="855" type="curve" smooth="yes"/>
      <point x="353" y="855"/>
      <point x="310" y="882"/>
      <point x="310" y="916" type="curve"/>
      <point x="192" y="916" type="line"/>
      <point x="192" y="821"/>
      <point x="277" y="754"/>
      <point x="401" y="754" type="curve" smooth="yes"/>
      <point x="525" y="754"/>
      <point x="610" y="821"/>
      <point x="610" y="916" type="curve"/>
    </contour>
    <component base="Ii-cy"/>
  </outline>
</glyph>
<glyph name="Ka-cy" format="1">
  <advance width="690"/>
  <unicode hex="041A"/>
  <outline>
    <contour>
      <point x="259" y="710" type="line"/>
      <point x="65" y="710" type="line"/>
      <point x="65" y="0" type="line"/>
      <point x="259" y="0" type="line"/>
      <point x="259" y="262" type="line"/>
      <point x="291" y="262" type="line"/>
      <point x="496" y="0" type="line"/>
      <point x="713" y="0" type="line"/>
      <point x="433" y="367" type="line"/>
      <point x="690" y="710" type="line"/>
      <point x="470" y="710" type="line"/>
      <point x="274" y="439" type="line"/>
      <point x="259" y="439" type="line"/>
    </contour>
  </outline>
</glyph>
<glyph name="Pe-cy" format="1">
  <advance width="739"/>
  <unicode hex="041F"/>
  <outline>
    <contour>
      <point x="65" y="0" type="line"/>
      <point x="260" y="0" type="line"/>
      <point x="260" y="540" type="line"/>
      <point x="479" y="540" type="line"/>
      <point x="479" y="0" type="line"/>
      <point x="674" y="0" type="line"/>
      <point x="674" y="710" type="line"/>
      <point x="65" y="710" type="line"/>
    </contour>
  </outline>
</glyph>
<glyph name="U-cy" format="1">
  <advance width="651"/>
  <unicode hex="0423"/>
  <outline>
    <contour>
      <point x="218" y="-7" type="curve" smooth="yes"/>
      <point x="316" y="-7"/>
      <point x="361" y="43"/>
      <point x="420" y="170" type="curve" smooth="yes"/>
      <point x="670" y="710" type="line"/>
      <point x="465" y="710" type="line"/>
      <point x="341" y="393" type="line"/>
      <point x="206" y="710" type="line"/>
      <point x="-9" y="710" type="line"/>
      <point x="254" y="204" type="line"/>
      <point x="249" y="178"/>
      <point x="227" y="162"/>
      <point x="198" y="162" type="curve" smooth="yes"/>
      <point x="164" y="162"/>
      <point x="136" y="186"/>
      <point x="132" y="192" type="curve"/>
      <point x="91" y="33" type="line"/>
      <point x="126" y="4"/>
      <point x="187" y="-7"/>
    </contour>
  </outline>
</glyph>
<glyph name="Tse-cy" format="1">
  <advance width="774"/>
  <unicode hex="0426"/>
  <outline>
    <contour>
      <point x="459" y="710" type="line"/>
      <point x="459" y="170" type="line"/>
      <point x="260" y="170" type="line"/>
      <point x="260" y="710" type="line"/>
      <point x="65" y="710" type="line"/>
      <point x="65" y="0" type="line"/>
      <point x="654" y="0" type="line"/>
      <point x="654" y="710" type="line"/>
    </contour>
    <contour>
      <point x="564" y="-166" type="line"/>
      <point x="754" y="-166" type="line"/>
      <point x="754" y="170" type="line"/>
      <point x="514" y="170" type="line"/>
      <point x="514" y="0" type="line"/>
      <point x="564" y="0" type="line"/>
    </contour>
  </outline>
</glyph>
<glyph name="Sha-cy" format="1">
  <advance width="1033"/>
  <unicode hex="0428"/>
  <outline>
    <contour>
      <point x="773" y="710" type="line"/>
      <point x="773" y="170" type="line"/>
      <point x="614" y="170" type="line"/>
      <point x="614" y="710" type="line"/>
      <point x="419" y="710" type="line"/>
      <point x="419" y="170" type="line"/>
      <point x="260" y="170" type="line"/>
      <point x="260" y="710" type="line"/>
      <point x="65" y="710" type="line"/>
      <point x="65" y="0" type="line"/>
      <point x="968" y="0" type="line"/>
      <point x="968" y="710" type="line"/>
    </contour>
  </outline>
</glyph>
<glyph name="Shcha-cy" format="1">
  <advance width="1088"/>
  <unicode hex="0429"/>
  <outline>
    <contour>
      <point x="773" y="710" type="line"/>
      <point x="773" y="170" type="line"/>
      <point x="614" y="170" type="line"/>
      <point x="614" y="710" type="line"/>
      <point x="419" y="710" type="line"/>
      <point x="419" y="170" type="line"/>
      <point x="260" y="170" type="line"/>
      <point x="260" y="710" type="line"/>
      <point x="65" y="710" type="line"/>
      <point x="65" y="0" type="line"/>
      <point x="968" y="0" type="line"/>
      <point x="968" y="710" type="line"/>
    </contour>
    <contour>
      <point x="878" y="-166" type="line"/>
      <point x="1068" y="-166" type="line"/>
      <point x="1068" y="170" type="line"/>
      <point x="798" y="170" type="line"/>
      <point x="798" y="0" type="line"/>
      <point x="878" y="0" type="line"/>
    </contour>
  </outline>
</glyph>
<glyph name="Softsign-cy" format="1">
  <advance width="653"/>
  <unicode hex="042C"/>
  <outline>
    <contour>
      <point x="260" y="0" type="line"/>
      <point x="260" y="710" type="line"/>
      <point x="65" y="710" type="line"/>
      <point x="65" y="0" type="line"/>
    </contour>
    <contour>
      <point x="85" y="0" type="line"/>
      <point x="386" y="0" type="line" smooth="yes"/>
      <point x="540" y="0"/>
      <point x="634" y="92"/>
      <point x="634" y="242" type="curve" smooth="yes"/>
      <point x="634" y="386"/>
      <point x="535" y="475"/>
      <point x="376" y="475" type="curve" smooth="yes"/>
      <point x="85" y="475" type="line"/>
    </contour>
    <contour>
      <point x="260" y="323" type="line"/>
      <point x="358" y="323" type="line" smooth="yes"/>
      <point x="408" y="323"/>
      <point x="435" y="286"/>
      <point x="435" y="244" type="curve" smooth="yes"/>
      <point x="435" y="195"/>
      <point x="409" y="164"/>
      <point x="358" y="164" type="curve" smooth="yes"/>
      <point x="260" y="164" type="line"/>
    </contour>
  </outline>
</glyph>
<glyph name="ge-cy" format="1">
  <advance width="440"/>
  <unicode hex="0433"/>
  <outline>
    <contour>
      <point x="428" y="526" type="line"/>
      <point x="50" y="526" type="line"/>
      <point x="50" y="0" type="line"/>
      <point x="240" y="0" type="line"/>
      <point x="240" y="361" type="line"/>
      <point x="428" y="361" type="line"/>
    </contour>
  </outline>
</glyph>
<glyph name="de-cy" format="1">
  <advance width="674"/>
  <unicode hex="0434"/>
  <outline>
    <contour>
      <point x="12" y="-132" type="line"/>
      <point x="177" y="-132" type="line"/>
      <point x="177" y="0" type="line"/>
      <point x="477" y="0" type="line"/>
      <point x="477" y="-132" type="line"/>
      <point x="648" y="-132" type="line"/>
      <point x="648" y="165" type="line"/>
      <point x="568" y="165" type="line"/>
      <point x="568" y="526" type="line"/>
      <point x="150" y="526" type="line"/>
      <point x="130" y="345" type="line" smooth="yes"/>
      <point x="114" y="198"/>
      <point x="99" y="166"/>
      <point x="38" y="165" type="curve"/>
      <point x="12" y="165" type="line"/>
    </contour>
    <contour>
      <point x="262" y="165" type="line"/>
      <point x="284" y="213"/>
      <point x="300" y="263"/>
      <point x="307" y="325" type="curve" smooth="yes"/>
      <point x="311" y="361" type="line"/>
      <point x="378" y="361" type="line"/>
      <point x="378" y="165" type="line"/>
    </contour>
  </outline>
</glyph>
<glyph name="ii-cy" format="1">
  <advance width="629"/>
  <unicode hex="0438"/>
  <outline>
    <contour>
      <point x="240" y="526" type="line"/>
      <point x="50" y="526" type="line"/>
      <point x="50" y="0" type="line"/>
      <point x="184" y="0" type="line"/>
      <point x="389" y="244" type="line"/>
      <point x="389" y="0" type="line"/>
      <point x="579" y="0" type="line"/>
      <point x="579" y="526" type="line"/>
      <point x="446" y="526" type="line"/>
      <point x="240" y="273" type="line"/>
    </contour>
  </outline>
</glyph>
<glyph name="ka-cy" format="1">
  <advance width="587"/>
  <unicode hex="043A"/>
  <outline>
    <contour>
      <point x="243" y="342" type="line"/>
      <point x="239" y="342" type="line"/>
      <point x="239" y="526" type="line"/>
      <point x="50" y="526" type="line"/>
      <point x="50" y="0" type="line"/>
      <point x="239" y="0" type="line"/>
      <point x="239" y="169" type="line"/>
      <point x="243" y="169" type="line"/>
      <point x="383" y="0" type="line"/>
      <point x="603" y="0" type="line"/>
      <point x="381" y="272" type="line"/>
      <point x="585" y="526" type="line"/>
      <point x="384" y="526" type="line"/>
    </contour>
  </outline>
</glyph>
<glyph name="el-cy" format="1">
  <advance width="598"/>
  <unicode hex="043B"/>
  <outline>
    <contour>
      <point x="12" y="-3" type="line"/>
      <point x="199" y="-1"/>
      <point x="258" y="69"/>
      <point x="287" y="325" type="curve" smooth="yes"/>
      <point x="291" y="361" type="line"/>
      <point x="358" y="361" type="line"/>
      <point x="358" y="0" type="line"/>
      <point x="548" y="0" type="line"/>
      <point x="548" y="526" type="line"/>
      <point x="129" y="526" type="line"/>
      <point x="109" y="345" type="line" smooth="yes"/>
      <point x="92" y="195"/>
      <point x="78" y="167"/>
      <point x="12" y="165" type="curve"/>
    </contour>
  </outline>
</glyph>
<glyph name="te-cy" format="1">
  <advance width="514"/>
  <unicode hex="0442"/>
  <outline>
    <contour>
      <point x="353" y="361" type="line"/>
      <point x="502" y="361" type="line"/>
      <point x="502" y="526" type="line"/>
      <point x="12" y="526" type="line"/>
      <point x="12" y="361" type="line"/>
      <point x="163" y="361" type="line"/>
      <point x="163" y="0" type="line"/>
      <point x="353" y="0" type="line"/>
    </contour>
  </outline>
</glyph>
<glyph name="tse-cy" format="1">
  <advance width="645"/>
  <unicode hex="0446"/>
  <outline>
    <contour>
      <point x="50" y="0" type="line"/>
      <point x="448" y="0" type="line"/>
      <point x="448" y="-132" type="line"/>
      <point x="619" y="-132" type="line"/>
      <point x="619" y="165" type="line"/>
      <point x="543" y="165" type="line"/>
      <point x="543" y="526" type="line"/>
      <point x="353" y="526" type="line"/>
      <point x="353" y="165" type="line"/>
      <point x="240" y="165" type="line"/>
      <point x="240" y="526" type="line"/>
      <point x="50" y="526" type="line"/>
    </contour>
  </outline>
</glyph>
<glyph name="che-cy" format="1">
  <advance width="549"/>
  <unicode hex="0447"/>
  <outline>
    <contour>
      <point x="499" y="526" type="line"/>
      <point x="315" y="526" type="line"/>
      <point x="315" y="298" type="line"/>
      <point x="296" y="288"/>
      <point x="279" y="284"/>
      <point x="265" y="284" type="curve" smooth="yes"/>
      <point x="222" y="284"/>
      <point x="204" y="307"/>
      <point x="204" y="349" type="curve" smooth="yes"/>
      <point x="204" y="526" type="line"/>
      <point x="24" y="526" type="line"/>
      <point x="24" y="324" type="line" smooth="yes"/>
      <point x="24" y="219"/>
      <point x="105" y="142"/>
      <point x="215" y="142" type="curve" smooth="yes"/>
      <point x="247" y="142"/>
      <point x="280" y="149"/>
      <point x="315" y="162" type="curve"/>
      <point x="315" y="0" type="line"/>
      <point x="499" y="0" type="line"/>
    </contour>
  </outline>
</glyph>
<glyph name="shcha-cy" format="1">
  <advance width="962"/>
  <unicode hex="0449"/>
  <outline>
    <contour>
      <point x="50" y="0" type="line"/>
      <point x="764" y="0" type="line"/>
      <point x="764" y="-132" type="line"/>
      <point x="936" y="-132" type="line"/>
      <point x="936" y="165" type="line"/>
      <point x="859" y="165" type="line"/>
      <point x="859" y="526" type="line"/>
      <point x="669" y="526" type="line"/>
      <point x="669" y="165" type="line"/>
      <point x="550" y="165" type="line"/>
      <point x="550" y="526" type="line"/>
      <point x="360" y="526" type="line"/>
      <point x="360" y="165" type="line"/>
      <point x="240" y="165" type="line"/>
      <point x="240" y="526" type="line"/>
      <point x="50" y="526" type="line"/>
    </contour>
  </outline>
</glyph>
<glyph name="tshe-cy" format="1">
  <advance width="626"/>
  <unicode hex="045B"/>
  <outline>
    <contour>
      <point x="389" y="0" type="line"/>
      <point x="579" y="0" type="line"/>
      <point x="579" y="286" type="line" smooth="yes"/>
      <point x="579" y="363"/>
      <point x="562" y="476"/>
      <point x="414" y="476" type="curve" smooth="yes"/>
      <point x="340" y="476"/>
      <point x="277" y="437"/>
      <point x="240" y="368" type="curve"/>
      <point x="240" y="534" type="line"/>
      <point x="443" y="534" type="line"/>
      <point x="443" y="643" type="line"/>
      <point x="240" y="643" type="line"/>
      <point x="240" y="730" type="line"/>
      <point x="50" y="730" type="line"/>
      <point x="50" y="643" type="line"/>
      <point x="-30" y="643" type="line"/>
      <point x="-30" y="534" type="line"/>
      <point x="50" y="534" type="line"/>
      <point x="50" y="0" type="line"/>
      <point x="240" y="0" type="line"/>
      <point x="240" y="205" type="line"/>
      <point x="258" y="269"/>
      <point x="293" y="310"/>
      <point x="332" y="310" type="curve" smooth="yes"/>
      <point x="363" y="310"/>
      <point x="389" y="288"/>
      <point x="389" y="236" type="curve" smooth="yes"/>
    </contour>
  </outline>
</glyph>
<glyph name="dzhe-cy" format="1">
  <advance width="604"/>
  <unicode hex="045F"/>
  <outline>
    <contour>
      <point x="215" y="-132" type="line"/>
      <point x="388" y="-132" type="line"/>
      <point x="388" y="0" type="line"/>
      <point x="554" y="0" type="line"/>
      <point x="554" y="526" type="line"/>
      <point x="364" y="526" type="line"/>
      <point x="364" y="165" type="line"/>
      <point x="240" y="165" type="line"/>
      <point x="240" y="526" type="line"/>
      <point x="50" y="526" type="line"/>
      <point x="50" y="0" type="line"/>
      <point x="215" y="0" type="line"/>
    </contour>
  </outline>
</glyph>
<glyph name="Ustraitstroke-cy" format="1">
  <advance width="648"/>
  <unicode hex="04B0"/>
  <outline>
    <contour>
      <point x="420" y="229" type="line"/>
      <point x="420" y="235" type="line"/>
      <point x="665" y="710" type="line"/>
      <point x="453" y="710" type="line"/>
      <point x="323" y="403" type="line"/>
      <point x="196" y="710" type="line"/>
      <point x="-15" y="710" type="line"/>
      <point x="226" y="237" type="line"/>
      <point x="226" y="229" type="line"/>
      <point x="57" y="229" type="line"/>
      <point x="57" y="109" type="line"/>
      <point x="226" y="109" type="line"/>
      <point x="226" y="0" type="line"/>
      <point x="420" y="0" type="line"/>
      <point x="420" y="109" type="line"/>
      <point x="590" y="109" type="line"/>
      <point x="590" y="229" type="line"/>
    </contour>
  </outline>
</glyph>
<glyph name="ustraitstroke-cy" format="1">
  <advance width="539"/>
  <unicode hex="04B1"/>
  <outline>
    <contour>
      <point x="186" y="-213" type="line"/>
      <point x="352" y="-213" type="line"/>
      <point x="352" y="0" type="line"/>
      <point x="486" y="0" type="line"/>
      <point x="486" y="120" type="line"/>
      <point x="366" y="120" type="line"/>
      <point x="366" y="124" type="line"/>
      <point x="545" y="526" type="line"/>
      <point x="353" y="526" type="line"/>
      <point x="269" y="277" type="line"/>
      <point x="195" y="526" type="line"/>
      <point x="-6" y="526" type="line"/>
      <point x="172" y="124" type="line"/>
      <point x="172" y="120" type="line"/>
      <point x="53" y="120" type="line"/>
      <point x="53" y="0" type="line"/>
      <point x="186" y="0" type="line"/>
    </contour>
  </outline>
</glyph>
<glyph name="figuredash" format="1">
  <advance width="500"/>
  <unicode hex="2012"/>
  <outline>
    <contour>
      <point x="450" y="191" type="line"/>
      <point x="450" y="361" type="line"/>
      <point x="50" y="361" type="line"/>
      <point x="50" y="191" type="line"/>
    </contour>
  </outline>
</glyph>
<glyph name="fraction" format="1">
  <advance width="240"/>
  <unicode hex="2044"/>
  <outline>
    <contour>
      <point x="-106" y="-10" type="line"/>
      <point x="157" y="337" type="line"/>
      <point x="428" y="646" type="line"/>
      <point x="345" y="721" type="line"/>
      <point x="94" y="384" type="line"/>
      <point x="-189" y="65" type="line"/>
    </contour>
  </outline>
</glyph>
<glyph name="zerosuperior" format="1">
  <advance width="511"/>
  <unicode hex="2070"/>
  <outline>
    <contour>
      <point x="256" y="374" type="curve" smooth="yes"/>
      <point x="398" y="374"/>
      <point x="485" y="490"/>
      <point x="485" y="597" type="curve" smooth="yes"/>
      <point x="485" y="693"/>
      <point x="407" y="820"/>
      <point x="256" y="820" type="curve" smooth="yes"/>
      <point x="114" y="820"/>
      <point x="26" y="703"/>
      <point x="26" y="597" type="curve" smooth="yes"/>
      <point x="26" y="498"/>
      <point x="104" y="374"/>
    </contour>
    <contour>
      <point x="138" y="597" type="curve" smooth="yes"/>
      <point x="138" y="645"/>
      <point x="172" y="711"/>
      <point x="256" y="711" type="curve" smooth="yes"/>
      <point x="334" y="711"/>
      <point x="373" y="650"/>
      <point x="373" y="597" type="curve" smooth="yes"/>
      <point x="373" y="549"/>
      <point x="339" y="483"/>
      <point x="256" y="483" type="curve" smooth="yes"/>
      <point x="175" y="483"/>
      <point x="138" y="544"/>
    </contour>
  </outline>
</glyph>
<glyph name="foursuperior" format="1">
  <advance width="431"/>
  <unicode hex="2074"/>
  <outline>
    <contour>
      <point x="342" y="381" type="line"/>
      <point x="342" y="464" type="line"/>
      <point x="406" y="464" type="line"/>
      <point x="406" y="571" type="line"/>
      <point x="342" y="571" type="line"/>
      <point x="342" y="821" type="line"/>
      <point x="268" y="821" type="line"/>
      <point x="19" y="571" type="line"/>
      <point x="19" y="464" type="line"/>
      <point x="234" y="464" type="line"/>
      <point x="234" y="381" type="line"/>
    </contour>
    <contour>
      <point x="238" y="692" type="line"/>
      <point x="238" y="571" type="line"/>
      <point x="120" y="571" type="line"/>
    </contour>
  </outline>
</glyph>
<glyph name="fivesuperior" format="1">
  <advance width="412"/>
  <unicode hex="2075"/>
  <outline>
    <contour>
      <point x="216" y="669" type="curve" smooth="yes"/>
      <point x="184" y="669"/>
      <point x="165" y="663"/>
      <point x="156" y="661" type="curve"/>
      <point x="173" y="712" type="line"/>
      <point x="353" y="712" type="line"/>
      <point x="353" y="821" type="line"/>
      <point x="95" y="821" type="line"/>
      <point x="79" y="728"/>
      <point x="51" y="638"/>
      <point x="34" y="546" type="curve"/>
      <point x="128" y="546" type="line"/>
      <point x="141" y="571"/>
      <point x="179" y="589"/>
      <point x="209" y="589" type="curve" smooth="yes"/>
      <point x="238" y="589"/>
      <point x="278" y="573"/>
      <point x="278" y="532" type="curve" smooth="yes"/>
      <point x="278" y="492"/>
      <point x="242" y="479"/>
      <point x="198" y="479" type="curve" smooth="yes"/>
      <point x="150" y="479"/>
      <point x="110" y="494"/>
      <point x="82" y="519" type="curve"/>
      <point x="20" y="443" type="line"/>
      <point x="53" y="400"/>
      <point x="118" y="374"/>
      <point x="191" y="374" type="curve" smooth="yes"/>
      <point x="307" y="374"/>
      <point x="389" y="437"/>
      <point x="389" y="526" type="curve" smooth="yes"/>
      <point x="389" y="610"/>
      <point x="315" y="669"/>
    </contour>
  </outline>
</glyph>
<glyph name="sixsuperior" format="1">
  <advance width="441"/>
  <unicode hex="2076"/>
  <outline>
    <contour>
      <point x="416" y="524" type="curve" smooth="yes"/>
      <point x="416" y="438"/>
      <point x="333" y="370"/>
      <point x="222" y="370" type="curve" smooth="yes"/>
      <point x="102" y="370"/>
      <point x="29" y="449"/>
      <point x="29" y="588" type="curve" smooth="yes"/>
      <point x="29" y="732"/>
      <point x="108" y="820"/>
      <point x="237" y="820" type="curve" smooth="yes"/>
      <point x="299" y="820"/>
      <point x="357" y="800"/>
      <point x="397" y="761" type="curve"/>
      <point x="335" y="684" type="line"/>
      <point x="312" y="705"/>
      <point x="273" y="716"/>
      <point x="232" y="716" type="curve" smooth="yes"/>
      <point x="171" y="716"/>
      <point x="131" y="692"/>
      <point x="129" y="650" type="curve"/>
      <point x="151" y="664"/>
      <point x="195" y="669"/>
      <point x="227" y="669" type="curve" smooth="yes"/>
      <point x="340" y="669"/>
      <point x="416" y="607"/>
    </contour>
    <contour>
      <point x="224" y="470" type="curve" smooth="yes"/>
      <point x="272" y="470"/>
      <point x="313" y="495"/>
      <point x="313" y="524" type="curve" smooth="yes"/>
      <point x="313" y="553"/>
      <point x="273" y="575"/>
      <point x="224" y="575" type="curve" smooth="yes"/>
      <point x="174" y="575"/>
      <point x="134" y="553"/>
      <point x="134" y="524" type="curve" smooth="yes"/>
      <point x="134" y="495"/>
      <point x="176" y="470"/>
    </contour>
  </outline>
</glyph>
<glyph name="eightsuperior" format="1">
  <advance width="439"/>
  <unicode hex="2078"/>
  <outline>
    <contour>
      <point x="412" y="513" type="curve" smooth="yes"/>
      <point x="412" y="562"/>
      <point x="379" y="592"/>
      <point x="333" y="615" type="curve"/>
      <point x="369" y="631"/>
      <point x="396" y="658"/>
      <point x="396" y="697" type="curve" smooth="yes"/>
      <point x="396" y="769"/>
      <point x="302" y="820"/>
      <point x="219" y="820" type="curve" smooth="yes"/>
      <point x="136" y="820"/>
      <point x="44" y="768"/>
      <point x="44" y="695" type="curve" smooth="yes"/>
      <point x="44" y="654"/>
      <point x="73" y="629"/>
      <point x="106" y="615" type="curve"/>
      <point x="63" y="593"/>
      <point x="27" y="567"/>
      <point x="27" y="515" type="curve" smooth="yes"/>
      <point x="27" y="434"/>
      <point x="115" y="374"/>
      <point x="220" y="374" type="curve" smooth="yes"/>
      <point x="324" y="374"/>
      <point x="412" y="433"/>
    </contour>
    <contour>
      <point x="302" y="525" type="curve" smooth="yes"/>
      <point x="302" y="501"/>
      <point x="263" y="483"/>
      <point x="220" y="483" type="curve" smooth="yes"/>
      <point x="179" y="483"/>
      <point x="137" y="500"/>
      <point x="137" y="525" type="curve" smooth="yes"/>
      <point x="137" y="549"/>
      <point x="174" y="566"/>
      <point x="219" y="566" type="curve" smooth="yes"/>
      <point x="262" y="566"/>
      <point x="302" y="550"/>
    </contour>
    <contour>
      <point x="152" y="685" type="curve" smooth="yes"/>
      <point x="152" y="703"/>
      <point x="183" y="715"/>
      <point x="219" y="715" type="curve" smooth="yes"/>
      <point x="255" y="715"/>
      <point x="287" y="703"/>
      <point x="287" y="685" type="curve" smooth="yes"/>
      <point x="287" y="666"/>
      <point x="251" y="655"/>
      <point x="219" y="655" type="curve" smooth="yes"/>
      <point x="187" y="655"/>
      <point x="152" y="666"/>
    </contour>
  </outline>
</glyph>
<glyph name="ninesuperior" format="1">
  <advance width="441"/>
  <unicode hex="2079"/>
  <outline>
    <contour>
      <point x="25" y="665" type="curve" smooth="yes"/>
      <point x="25" y="752"/>
      <point x="108" y="820"/>
      <point x="219" y="820" type="curve" smooth="yes"/>
      <point x="339" y="820"/>
      <point x="412" y="740"/>
      <point x="412" y="601" type="curve" smooth="yes"/>
      <point x="412" y="458"/>
      <point x="334" y="370"/>
      <point x="205" y="370" type="curve" smooth="yes"/>
      <point x="142" y="370"/>
      <point x="84" y="390"/>
      <point x="44" y="429" type="curve"/>
      <point x="106" y="506" type="line"/>
      <point x="129" y="485"/>
      <point x="168" y="473"/>
      <point x="209" y="473" type="curve" smooth="yes"/>
      <point x="270" y="473"/>
      <point x="310" y="498"/>
      <point x="312" y="540" type="curve"/>
      <point x="291" y="526"/>
      <point x="247" y="520"/>
      <point x="213" y="520" type="curve" smooth="yes"/>
      <point x="102" y="520"/>
      <point x="25" y="582"/>
    </contour>
    <contour>
      <point x="217" y="720" type="curve" smooth="yes"/>
      <point x="169" y="720"/>
      <point x="129" y="694"/>
      <point x="129" y="665" type="curve" smooth="yes"/>
      <point x="129" y="637"/>
      <point x="169" y="615"/>
      <point x="218" y="615" type="curve" smooth="yes"/>
      <point x="267" y="615"/>
      <point x="307" y="637"/>
      <point x="307" y="665" type="curve" smooth="yes"/>
      <point x="307" y="694"/>
      <point x="266" y="720"/>
    </contour>
  </outline>
</glyph>
<glyph name="zeroinferior" format="1">
  <advance width="511"/>
  <unicode hex="2080"/>
  <outline>
    <contour>
      <point x="256" y="-96" type="curve" smooth="yes"/>
      <point x="398" y="-96"/>
      <point x="485" y="20"/>
      <point x="485" y="127" type="curve" smooth="yes"/>
      <point x="485" y="223"/>
      <point x="407" y="350"/>
      <point x="256" y="350" type="curve" smooth="yes"/>
      <point x="114" y="350"/>
      <point x="26" y="233"/>
      <point x="26" y="127" type="curve" smooth="yes"/>
      <point x="26" y="28"/>
      <point x="104" y="-96"/>
    </contour>
    <contour>
      <point x="138" y="127" type="curve" smooth="yes"/>
      <point x="138" y="175"/>
      <point x="172" y="241"/>
      <point x="256" y="241" type="curve" smooth="yes"/>
      <point x="334" y="241"/>
      <point x="373" y="180"/>
      <point x="373" y="127" type="curve" smooth="yes"/>
      <point x="373" y="79"/>
      <point x="339" y="13"/>
      <point x="256" y="13" type="curve" smooth="yes"/>
      <point x="175" y="13"/>
      <point x="138" y="74"/>
    </contour>
  </outline>
</glyph>
<glyph name="oneinferior" format="1">
  <advance width="370"/>
  <unicode hex="2081"/>
  <outline>
    <contour>
      <point x="260" y="17" type="line"/>
      <point x="260" y="353" type="line"/>
      <point x="150" y="353" type="line"/>
      <point x="149" y="351"/>
      <point x="82" y="294"/>
      <point x="30" y="294" type="curve"/>
      <point x="30" y="185" type="line"/>
      <point x="70" y="185"/>
      <point x="133" y="219"/>
      <point x="150" y="238" type="curve"/>
      <point x="150" y="17" type="line"/>
      <point x="47" y="17" type="line"/>
      <point x="47" y="-90" type="line"/>
      <point x="354" y="-90" type="line"/>
      <point x="354" y="17" type="line"/>
    </contour>
  </outline>
</glyph>
<glyph name="twoinferior" format="1">
  <advance width="447"/>
  <unicode hex="2082"/>
  <outline>
    <contour>
      <point x="413" y="-90" type="line"/>
      <point x="413" y="17" type="line"/>
      <point x="207" y="17" type="line"/>
      <point x="207" y="43"/>
      <point x="239" y="56"/>
      <point x="287" y="69" type="curve" smooth="yes"/>
      <point x="338" y="83"/>
      <point x="412" y="120"/>
      <point x="412" y="210" type="curve" smooth="yes"/>
      <point x="412" y="306"/>
      <point x="347" y="355"/>
      <point x="233" y="355" type="curve" smooth="yes"/>
      <point x="131" y="355"/>
      <point x="57" y="323"/>
      <point x="28" y="285" type="curve"/>
      <point x="96" y="205" type="line"/>
      <point x="122" y="228"/>
      <point x="165" y="249"/>
      <point x="216" y="249" type="curve" smooth="yes"/>
      <point x="260" y="249"/>
      <point x="288" y="241"/>
      <point x="288" y="211" type="curve" smooth="yes"/>
      <point x="288" y="167"/>
      <point x="224" y="147"/>
      <point x="161" y="120" type="curve" smooth="yes"/>
      <point x="53" y="75"/>
      <point x="26" y="24"/>
      <point x="26" y="-90" type="curve"/>
    </contour>
  </outline>
</glyph>
<glyph name="threeinferior" format="1">
  <advance width="422"/>
  <unicode hex="2083"/>
  <outline>
    <contour>
      <point x="194" y="-96" type="curve" smooth="yes"/>
      <point x="292" y="-96"/>
      <point x="393" y="-61"/>
      <point x="393" y="32" type="curve" smooth="yes"/>
      <point x="393" y="88"/>
      <point x="352" y="137"/>
      <point x="285" y="146" type="curve"/>
      <point x="345" y="155"/>
      <point x="383" y="188"/>
      <point x="383" y="236" type="curve" smooth="yes"/>
      <point x="383" y="304"/>
      <point x="304" y="356"/>
      <point x="199" y="356" type="curve" smooth="yes"/>
      <point x="130" y="356"/>
      <point x="56" y="337"/>
      <point x="21" y="300" type="curve"/>
      <point x="90" y="211" type="line"/>
      <point x="118" y="237"/>
      <point x="148" y="255"/>
      <point x="200" y="255" type="curve" smooth="yes"/>
      <point x="224" y="255"/>
      <point x="267" y="251"/>
      <point x="267" y="229" type="curve" smooth="yes"/>
      <point x="267" y="199"/>
      <point x="210" y="189"/>
      <point x="133" y="189" type="curve" smooth="yes"/>
      <point x="109" y="189" type="line"/>
      <point x="109" y="90" type="line"/>
      <point x="134" y="90" type="line" smooth="yes"/>
      <point x="227" y="90"/>
      <point x="282" y="80"/>
      <point x="282" y="49" type="curve" smooth="yes"/>
      <point x="282" y="23"/>
      <point x="240" y="14"/>
      <point x="192" y="14" type="curve" smooth="yes"/>
      <point x="139" y="14"/>
      <point x="105" y="35"/>
      <point x="80" y="59" type="curve"/>
      <point x="23" y="-25" type="line"/>
      <point x="49" y="-74"/>
      <point x="111" y="-96"/>
    </contour>
  </outline>
</glyph>
<glyph name="fourinferior" format="1">
  <advance width="431"/>
  <unicode hex="2084"/>
  <outline>
    <contour>
      <point x="342" y="-89" type="line"/>
      <point x="342" y="-6" type="line"/>
      <point x="406" y="-6" type="line"/>
      <point x="406" y="101" type="line"/>
      <point x="342" y="101" type="line"/>
      <point x="342" y="351" type="line"/>
      <point x="268" y="351" type="line"/>
      <point x="19" y="101" type="line"/>
      <point x="19" y="-6" type="line"/>
      <point x="234" y="-6" type="line"/>
      <point x="234" y="-89" type="line"/>
    </contour>
    <contour>
      <point x="238" y="222" type="line"/>
      <point x="238" y="101" type="line"/>
      <point x="120" y="101" type="line"/>
    </contour>
  </outline>
</glyph>
<glyph name="fiveinferior" format="1">
  <advance width="411"/>
  <unicode hex="2085"/>
  <outline>
    <contour>
      <point x="215" y="199" type="curve" smooth="yes"/>
      <point x="183" y="199"/>
      <point x="164" y="193"/>
      <point x="155" y="191" type="curve"/>
      <point x="172" y="242" type="line"/>
      <point x="352" y="242" type="line"/>
      <point x="352" y="351" type="line"/>
      <point x="94" y="351" type="line"/>
      <point x="78" y="258"/>
      <point x="50" y="168"/>
      <point x="33" y="76" type="curve"/>
      <point x="127" y="76" type="line"/>
      <point x="140" y="101"/>
      <point x="178" y="119"/>
      <point x="208" y="119" type="curve" smooth="yes"/>
      <point x="237" y="119"/>
      <point x="277" y="103"/>
      <point x="277" y="62" type="curve" smooth="yes"/>
      <point x="277" y="22"/>
      <point x="241" y="9"/>
      <point x="197" y="9" type="curve" smooth="yes"/>
      <point x="149" y="9"/>
      <point x="109" y="24"/>
      <point x="81" y="49" type="curve"/>
      <point x="19" y="-27" type="line"/>
      <point x="52" y="-70"/>
      <point x="117" y="-96"/>
      <point x="190" y="-96" type="curve" smooth="yes"/>
      <point x="306" y="-96"/>
      <point x="388" y="-33"/>
      <point x="388" y="56" type="curve" smooth="yes"/>
      <point x="388" y="140"/>
      <point x="314" y="199"/>
    </contour>
  </outline>
</glyph>
<glyph name="sixinferior" format="1">
  <advance width="441"/>
  <unicode hex="2086"/>
  <outline>
    <contour>
      <point x="416" y="58" type="curve" smooth="yes"/>
      <point x="416" y="-28"/>
      <point x="333" y="-96"/>
      <point x="222" y="-96" type="curve" smooth="yes"/>
      <point x="102" y="-96"/>
      <point x="29" y="-17"/>
      <point x="29" y="122" type="curve" smooth="yes"/>
      <point x="29" y="266"/>
      <point x="108" y="354"/>
      <point x="237" y="354" type="curve" smooth="yes"/>
      <point x="299" y="354"/>
      <point x="357" y="334"/>
      <point x="397" y="295" type="curve"/>
      <point x="335" y="218" type="line"/>
      <point x="312" y="239"/>
      <point x="273" y="250"/>
      <point x="232" y="250" type="curve" smooth="yes"/>
      <point x="171" y="250"/>
      <point x="131" y="226"/>
      <point x="129" y="184" type="curve"/>
      <point x="151" y="198"/>
      <point x="195" y="203"/>
      <point x="227" y="203" type="curve" smooth="yes"/>
      <point x="340" y="203"/>
      <point x="416" y="141"/>
    </contour>
    <contour>
      <point x="224" y="4" type="curve" smooth="yes"/>
      <point x="272" y="4"/>
      <point x="313" y="29"/>
      <point x="313" y="58" type="curve" smooth="yes"/>
      <point x="313" y="87"/>
      <point x="273" y="109"/>
      <point x="224" y="109" type="curve" smooth="yes"/>
      <point x="174" y="109"/>
      <point x="134" y="87"/>
      <point x="134" y="58" type="curve" smooth="yes"/>
      <point x="134" y="29"/>
      <point x="176" y="4"/>
    </contour>
  </outline>
</glyph>
<glyph name="seveninferior" format="1">
  <advance width="418"/>
  <unicode hex="2087"/>
  <outline>
    <contour>
      <point x="41" y="-89" type="line"/>
      <point x="164" y="-89" type="line"/>
      <point x="423" y="351" type="line"/>
      <point x="23" y="351" type="line"/>
      <point x="23" y="242" type="line"/>
      <point x="253" y="242" type="line"/>
    </contour>
  </outline>
</glyph>
<glyph name="eightinferior" format="1">
  <advance width="439"/>
  <unicode hex="2088"/>
  <outline>
    <contour>
      <point x="412" y="43" type="curve" smooth="yes"/>
      <point x="412" y="92"/>
      <point x="379" y="122"/>
      <point x="333" y="145" type="curve"/>
      <point x="369" y="161"/>
      <point x="396" y="188"/>
      <point x="396" y="227" type="curve" smooth="yes"/>
      <point x="396" y="299"/>
      <point x="302" y="350"/>
      <point x="219" y="350" type="curve" smooth="yes"/>
      <point x="136" y="350"/>
      <point x="44" y="298"/>
      <point x="44" y="225" type="curve" smooth="yes"/>
      <point x="44" y="184"/>
      <point x="73" y="159"/>
      <point x="106" y="145" type="curve"/>
      <point x="63" y="123"/>
      <point x="27" y="97"/>
      <point x="27" y="45" type="curve" smooth="yes"/>
      <point x="27" y="-36"/>
      <point x="115" y="-96"/>
      <point x="220" y="-96" type="curve" smooth="yes"/>
      <point x="324" y="-96"/>
      <point x="412" y="-37"/>
    </contour>
    <contour>
      <point x="302" y="55" type="curve" smooth="yes"/>
      <point x="302" y="31"/>
      <point x="263" y="13"/>
      <point x="220" y="13" type="curve" smooth="yes"/>
      <point x="179" y="13"/>
      <point x="137" y="30"/>
      <point x="137" y="55" type="curve" smooth="yes"/>
      <point x="137" y="79"/>
      <point x="174" y="96"/>
      <point x="219" y="96" type="curve" smooth="yes"/>
      <point x="262" y="96"/>
      <point x="302" y="80"/>
    </contour>
    <contour>
      <point x="152" y="215" type="curve" smooth="yes"/>
      <point x="152" y="233"/>
      <point x="183" y="245"/>
      <point x="219" y="245" type="curve" smooth="yes"/>
      <point x="255" y="245"/>
      <point x="287" y="233"/>
      <point x="287" y="215" type="curve" smooth="yes"/>
      <point x="287" y="196"/>
      <point x="251" y="185"/>
      <point x="219" y="185" type="curve" smooth="yes"/>
      <point x="187" y="185"/>
      <point x="152" y="196"/>
    </contour>
  </outline>
</glyph>
<glyph name="nineinferior" format="1">
  <advance width="441"/>
  <unicode hex="2089"/>
  <outline>
    <contour>
      <point x="25" y="199" type="curve" smooth="yes"/>
      <point x="25" y="286"/>
      <point x="108" y="354"/>
      <point x="219" y="354" type="curve" smooth="yes"/>
      <point x="339" y="354"/>
      <point x="412" y="274"/>
      <point x="412" y="135" type="curve" smooth="yes"/>
      <point x="412" y="-8"/>
      <point x="334" y="-96"/>
      <point x="205" y="-96" type="curve" smooth="yes"/>
      <point x="142" y="-96"/>
      <point x="84" y="-76"/>
      <point x="44" y="-37" type="curve"/>
      <point x="106" y="40" type="line"/>
      <point x="129" y="19"/>
      <point x="168" y="7"/>
      <point x="209" y="7" type="curve" smooth="yes"/>
      <point x="270" y="7"/>
      <point x="310" y="32"/>
      <point x="312" y="74" type="curve"/>
      <point x="291" y="60"/>
      <point x="247" y="54"/>
      <point x="213" y="54" type="curve" smooth="yes"/>
      <point x="102" y="54"/>
      <point x="25" y="116"/>
    </contour>
    <contour>
      <point x="217" y="254" type="curve" smooth="yes"/>
      <point x="169" y="254"/>
      <point x="129" y="228"/>
      <point x="129" y="199" type="curve" smooth="yes"/>
      <point x="129" y="171"/>
      <point x="169" y="149"/>
      <point x="218" y="149" type="curve" smooth="yes"/>
      <point x="267" y="149"/>
      <point x="307" y="171"/>
      <point x="307" y="199" type="curve" smooth="yes"/>
      <point x="307" y="228"/>
      <point x="266" y="254"/>
    </contour>
  </outline>
</glyph>
<glyph name="ruble" format="1">
  <advance width="623"/>
  <unicode hex="20BD"/>
  <outline>
    <contour>
      <point x="402" y="86" type="line"/>
      <point x="402" y="206" type="line"/>
      <point x="35" y="206" type="line"/>
      <point x="35" y="86" type="line"/>
    </contour>
    <contour>
      <point x="208" y="268" type="line"/>
      <point x="208" y="398" type="line"/>
      <point x="35" y="398" type="line"/>
      <point x="35" y="268" type="line"/>
    </contour>
    <contour>
      <point x="276" y="0" type="line"/>
      <point x="276" y="268" type="line"/>
      <point x="372" y="268" type="line" smooth="yes"/>
      <point x="512" y="268"/>
      <point x="606" y="376"/>
      <point x="606" y="486" type="curve" smooth="yes"/>
      <point x="606" y="599"/>
      <point x="506" y="710"/>
      <point x="367" y="710" type="curve" smooth="yes"/>
      <point x="81" y="710" type="line"/>
      <point x="81" y="0" type="line"/>
    </contour>
    <contour>
      <point x="276" y="580" type="line"/>
      <point x="324" y="580" type="line" smooth="yes"/>
      <point x="376" y="580"/>
      <point x="438" y="559"/>
      <point x="438" y="488" type="curve" smooth="yes"/>
      <point x="438" y="421"/>
      <point x="381" y="398"/>
      <point x="329" y="398" type="curve" smooth="yes"/>
      <point x="276" y="398" type="line"/>
    </contour>
  </outline>
</glyph>
<glyph name="divisionslash" format="1">
  <advance width="641"/>
  <unicode hex="2215"/>
  <outline>
    <contour>
      <point x="85" y="-10" type="line"/>
      <point x="663" y="632" type="line"/>
      <point x="556" y="721" type="line"/>
      <point x="-22" y="79" type="line"/>
    </contour>
  </outline>
</glyph>
<glyph name="fl" format="1">
  <advance width="718"/>
  <unicode hex="FB02"/>
  <outline>
    <contour>
      <point x="639" y="-9"/>
      <point x="717" y="21"/>
      <point x="720" y="24" type="curve"/>
      <point x="697" y="176" type="line"/>
      <point x="695" y="176"/>
      <point x="662" y="160"/>
      <point x="640" y="160" type="curve" smooth="yes"/>
      <point x="608" y="160"/>
      <point x="597" y="192"/>
      <point x="597" y="217" type="curve" smooth="yes"/>
      <point x="597" y="510" type="line" smooth="yes"/>
      <point x="597" y="650"/>
      <point x="518" y="740"/>
      <point x="337" y="740" type="curve" smooth="yes"/>
      <point x="188" y="740"/>
      <point x="85" y="679"/>
      <point x="85" y="540" type="curve" smooth="yes"/>
      <point x="85" y="465" type="line"/>
      <point x="20" y="465" type="line"/>
      <point x="20" y="322" type="line"/>
      <point x="85" y="322" type="line"/>
      <point x="85" y="0" type="line"/>
      <point x="275" y="0" type="line"/>
      <point x="275" y="322" type="line"/>
      <point x="344" y="322" type="line"/>
      <point x="344" y="465" type="line"/>
      <point x="275" y="465" type="line"/>
      <point x="275" y="494" type="line" smooth="yes"/>
      <point x="275" y="545"/>
      <point x="291" y="580"/>
      <point x="345" y="580" type="curve" smooth="yes"/>
      <point x="399" y="580"/>
      <point x="407" y="545"/>
      <point x="407" y="473" type="curve" smooth="yes"/>
      <point x="407" y="117" type="line" smooth="yes"/>
      <point x="407" y="49"/>
      <point x="467" y="-9"/>
      <point x="567" y="-9" type="curve" smooth="yes"/>
    </contour>
  </outline>
</glyph>
<glyph name="brevecomb_acutecomb" format="1">
  <advance width="425"/>
  <outline>
    <component base="brevecomb"/>
    <component base="acutecomb" xOffset="76" yOffset="184"/>
    <contour>
      <point x="193" y="934" type="move" name="top"/>
    </contour>
    <contour>
      <point x="193" y="526" type="move" name="_top"/>
    </contour>
  </outline>
</glyph>
<glyph name="brevecomb_gravecomb" format="1">
  <advance width="368"/>
  <outline>
    <component base="brevecomb"/>
    <component base="gravecomb" xOffset="-11" yOffset="204"/>
    <contour>
      <point x="192" y="934" type="move" name="top"/>
    </contour>
    <contour>
      <point x="192" y="526" type="move" name="_top"/>
    </contour>
  </outline>
</glyph>
<glyph name="brevecomb_hookabovecomb" format="1">
  <advance width="368"/>
  <outline>
    <component base="brevecomb"/>
    <component base="hookabovecomb" xOffset="-154" yOffset="152"/>
    <contour>
      <point x="182" y="989" type="move" name="top"/>
    </contour>
    <contour>
      <point x="182" y="526" type="move" name="_top"/>
    </contour>
  </outline>
</glyph>
<glyph name="brevecomb_tildecomb" format="1">
  <advance width="368"/>
  <outline>
    <component base="brevecomb"/>
    <component base="tildecomb" xOffset="-48" yOffset="204"/>
    <contour>
      <point x="209" y="934" type="move" name="top"/>
    </contour>
    <contour>
      <point x="209" y="526" type="move" name="_top"/>
    </contour>
  </outline>
</glyph>
<glyph name="caroncomb.alt" format="1">
  <advance width="284"/>
  <outline>
    <contour>
      <point x="264" y="730" type="line"/>
      <point x="95" y="730" type="line"/>
      <point x="45" y="588" type="line"/>
      <point x="165" y="556" type="line"/>
    </contour>
    <contour>
      <point x="85" y="526" type="move" name="_topright"/>
    </contour>
  </outline>
</glyph>
<glyph name="circumflexcomb_acutecomb" format="1">
  <advance width="550"/>
  <outline>
    <component base="circumflexcomb"/>
    <component base="acutecomb" xOffset="266" yOffset="127"/>
    <contour>
      <point x="201" y="934" type="move" name="top"/>
    </contour>
    <contour>
      <point x="201" y="526" type="move" name="_top"/>
    </contour>
  </outline>
</glyph>
<glyph name="circumflexcomb_gravecomb" format="1">
  <advance width="556"/>
  <outline>
    <component base="circumflexcomb" xOffset="154"/>
    <component base="gravecomb" xOffset="-25" yOffset="128"/>
    <contour>
      <point x="365" y="934" type="move" name="top"/>
    </contour>
    <contour>
      <point x="365" y="526" type="move" name="_top"/>
    </contour>
  </outline>
</glyph>
<glyph name="circumflexcomb_tildecomb" format="1">
  <advance width="402"/>
  <outline>
    <component base="circumflexcomb"/>
    <component base="tildecomb" xOffset="-31" yOffset="204"/>
    <contour>
      <point x="204" y="934" type="move" name="top"/>
    </contour>
    <contour>
      <point x="204" y="526" type="move" name="_top"/>
    </contour>
  </outline>
</glyph>
<glyph name="eight.dnom" format="1">
  <advance width="439"/>
  <outline>
    <contour>
      <point x="412" y="133" type="curve" smooth="yes"/>
      <point x="412" y="182"/>
      <point x="379" y="212"/>
      <point x="333" y="235" type="curve"/>
      <point x="369" y="251"/>
      <point x="396" y="278"/>
      <point x="396" y="317" type="curve" smooth="yes"/>
      <point x="396" y="389"/>
      <point x="302" y="440"/>
      <point x="219" y="440" type="curve" smooth="yes"/>
      <point x="136" y="440"/>
      <point x="44" y="388"/>
      <point x="44" y="315" type="curve" smooth="yes"/>
      <point x="44" y="274"/>
      <point x="73" y="249"/>
      <point x="106" y="235" type="curve"/>
      <point x="63" y="213"/>
      <point x="27" y="187"/>
      <point x="27" y="135" type="curve" smooth="yes"/>
      <point x="27" y="54"/>
      <point x="115" y="-6"/>
      <point x="220" y="-6" type="curve" smooth="yes"/>
      <point x="324" y="-6"/>
      <point x="412" y="53"/>
    </contour>
    <contour>
      <point x="302" y="145" type="curve" smooth="yes"/>
      <point x="302" y="121"/>
      <point x="263" y="103"/>
      <point x="220" y="103" type="curve" smooth="yes"/>
      <point x="179" y="103"/>
      <point x="137" y="120"/>
      <point x="137" y="145" type="curve" smooth="yes"/>
      <point x="137" y="169"/>
      <point x="174" y="186"/>
      <point x="219" y="186" type="curve" smooth="yes"/>
      <point x="262" y="186"/>
      <point x="302" y="170"/>
    </contour>
    <contour>
      <point x="152" y="305" type="curve" smooth="yes"/>
      <point x="152" y="323"/>
      <point x="183" y="335"/>
      <point x="219" y="335" type="curve" smooth="yes"/>
      <point x="255" y="335"/>
      <point x="287" y="323"/>
      <point x="287" y="305" type="curve" smooth="yes"/>
      <point x="287" y="286"/>
      <point x="251" y="275"/>
      <point x="219" y="275" type="curve" smooth="yes"/>
      <point x="187" y="275"/>
      <point x="152" y="286"/>
    </contour>
  </outline>
</glyph>
<glyph name="eight.numr" format="1">
  <advance width="439"/>
  <outline>
    <contour>
      <point x="412" y="423" type="curve" smooth="yes"/>
      <point x="412" y="472"/>
      <point x="379" y="502"/>
      <point x="333" y="525" type="curve"/>
      <point x="369" y="541"/>
      <point x="396" y="568"/>
      <point x="396" y="607" type="curve" smooth="yes"/>
      <point x="396" y="679"/>
      <point x="302" y="730"/>
      <point x="219" y="730" type="curve" smooth="yes"/>
      <point x="136" y="730"/>
      <point x="44" y="678"/>
      <point x="44" y="605" type="curve" smooth="yes"/>
      <point x="44" y="564"/>
      <point x="73" y="539"/>
      <point x="106" y="525" type="curve"/>
      <point x="63" y="503"/>
      <point x="27" y="477"/>
      <point x="27" y="425" type="curve" smooth="yes"/>
      <point x="27" y="344"/>
      <point x="115" y="284"/>
      <point x="220" y="284" type="curve" smooth="yes"/>
      <point x="324" y="284"/>
      <point x="412" y="343"/>
    </contour>
    <contour>
      <point x="302" y="435" type="curve" smooth="yes"/>
      <point x="302" y="411"/>
      <point x="263" y="393"/>
      <point x="220" y="393" type="curve" smooth="yes"/>
      <point x="179" y="393"/>
      <point x="137" y="410"/>
      <point x="137" y="435" type="curve" smooth="yes"/>
      <point x="137" y="459"/>
      <point x="174" y="476"/>
      <point x="219" y="476" type="curve" smooth="yes"/>
      <point x="262" y="476"/>
      <point x="302" y="460"/>
    </contour>
    <contour>
      <point x="152" y="595" type="curve" smooth="yes"/>
      <point x="152" y="613"/>
      <point x="183" y="625"/>
      <point x="219" y="625" type="curve" smooth="yes"/>
      <point x="255" y="625"/>
      <point x="287" y="613"/>
      <point x="287" y="595" type="curve" smooth="yes"/>
      <point x="287" y="576"/>
      <point x="251" y="565"/>
      <point x="219" y="565" type="curve" smooth="yes"/>
      <point x="187" y="565"/>
      <point x="152" y="576"/>
    </contour>
  </outline>
</glyph>
<glyph name="f_f_l" format="1">
  <advance width="1006"/>
  <outline>
    <contour>
      <point x="927" y="-9"/>
      <point x="1005" y="21"/>
      <point x="1008" y="24" type="curve"/>
      <point x="985" y="176" type="line"/>
      <point x="983" y="176"/>
      <point x="950" y="160"/>
      <point x="928" y="160" type="curve" smooth="yes"/>
      <point x="896" y="160"/>
      <point x="885" y="192"/>
      <point x="885" y="217" type="curve" smooth="yes"/>
      <point x="885" y="510" type="line" smooth="yes"/>
      <point x="885" y="650"/>
      <point x="806" y="740"/>
      <point x="625" y="740" type="curve" smooth="yes"/>
      <point x="539" y="740"/>
      <point x="468" y="720"/>
      <point x="424" y="676" type="curve"/>
      <point x="371" y="696"/>
      <point x="323" y="706"/>
      <point x="278" y="706" type="curve" smooth="yes"/>
      <point x="162" y="706"/>
      <point x="85" y="620"/>
      <point x="85" y="488" type="curve" smooth="yes"/>
      <point x="85" y="465" type="line"/>
      <point x="20" y="465" type="line"/>
      <point x="20" y="322" type="line"/>
      <point x="85" y="322" type="line"/>
      <point x="85" y="0" type="line"/>
      <point x="275" y="0" type="line"/>
      <point x="275" y="322" type="line"/>
      <point x="373" y="322" type="line"/>
      <point x="373" y="0" type="line"/>
      <point x="563" y="0" type="line"/>
      <point x="563" y="322" type="line"/>
      <point x="632" y="322" type="line"/>
      <point x="632" y="465" type="line"/>
      <point x="563" y="465" type="line"/>
      <point x="563" y="494" type="line" smooth="yes"/>
      <point x="563" y="540"/>
      <point x="579" y="580"/>
      <point x="627" y="580" type="curve" smooth="yes"/>
      <point x="687" y="580"/>
      <point x="695" y="541"/>
      <point x="695" y="483" type="curve" smooth="yes"/>
      <point x="695" y="117" type="line" smooth="yes"/>
      <point x="695" y="49"/>
      <point x="755" y="-9"/>
      <point x="855" y="-9" type="curve" smooth="yes"/>
    </contour>
    <contour>
      <point x="275" y="495" type="line" smooth="yes"/>
      <point x="275" y="529"/>
      <point x="290" y="546"/>
      <point x="321" y="546" type="curve" smooth="yes"/>
      <point x="335" y="546"/>
      <point x="355" y="543"/>
      <point x="373" y="538" type="curve"/>
      <point x="373" y="514"/>
      <point x="373" y="489"/>
      <point x="373" y="465" type="curve"/>
      <point x="275" y="465" type="line"/>
    </contour>
  </outline>
</glyph>
<glyph name="five.dnom" format="1">
  <advance width="412"/>
  <outline>
    <contour>
      <point x="216" y="289" type="curve" smooth="yes"/>
      <point x="184" y="289"/>
      <point x="165" y="283"/>
      <point x="156" y="281" type="curve"/>
      <point x="173" y="332" type="line"/>
      <point x="353" y="332" type="line"/>
      <point x="353" y="441" type="line"/>
      <point x="95" y="441" type="line"/>
      <point x="79" y="348"/>
      <point x="51" y="258"/>
      <point x="34" y="166" type="curve"/>
      <point x="128" y="166" type="line"/>
      <point x="141" y="191"/>
      <point x="179" y="209"/>
      <point x="209" y="209" type="curve" smooth="yes"/>
      <point x="238" y="209"/>
      <point x="278" y="193"/>
      <point x="278" y="152" type="curve" smooth="yes"/>
      <point x="278" y="112"/>
      <point x="242" y="99"/>
      <point x="198" y="99" type="curve" smooth="yes"/>
      <point x="150" y="99"/>
      <point x="110" y="114"/>
      <point x="82" y="139" type="curve"/>
      <point x="20" y="63" type="line"/>
      <point x="53" y="20"/>
      <point x="118" y="-6"/>
      <point x="191" y="-6" type="curve" smooth="yes"/>
      <point x="307" y="-6"/>
      <point x="389" y="57"/>
      <point x="389" y="146" type="curve" smooth="yes"/>
      <point x="389" y="230"/>
      <point x="315" y="289"/>
    </contour>
  </outline>
</glyph>
<glyph name="five.numr" format="1">
  <advance width="411"/>
  <outline>
    <contour>
      <point x="215" y="579" type="curve" smooth="yes"/>
      <point x="183" y="579"/>
      <point x="164" y="573"/>
      <point x="155" y="571" type="curve"/>
      <point x="172" y="622" type="line"/>
      <point x="352" y="622" type="line"/>
      <point x="352" y="731" type="line"/>
      <point x="94" y="731" type="line"/>
      <point x="78" y="638"/>
      <point x="50" y="548"/>
      <point x="33" y="456" type="curve"/>
      <point x="127" y="456" type="line"/>
      <point x="140" y="481"/>
      <point x="178" y="499"/>
      <point x="208" y="499" type="curve" smooth="yes"/>
      <point x="237" y="499"/>
      <point x="277" y="483"/>
      <point x="277" y="442" type="curve" smooth="yes"/>
      <point x="277" y="402"/>
      <point x="241" y="389"/>
      <point x="197" y="389" type="curve" smooth="yes"/>
      <point x="149" y="389"/>
      <point x="109" y="404"/>
      <point x="81" y="429" type="curve"/>
      <point x="19" y="353" type="line"/>
      <point x="52" y="310"/>
      <point x="117" y="284"/>
      <point x="190" y="284" type="curve" smooth="yes"/>
      <point x="306" y="284"/>
      <point x="388" y="347"/>
      <point x="388" y="436" type="curve" smooth="yes"/>
      <point x="388" y="520"/>
      <point x="314" y="579"/>
    </contour>
  </outline>
</glyph>
<glyph name="four.dnom" format="1">
  <advance width="431"/>
  <outline>
    <contour>
      <point x="342" y="1" type="line"/>
      <point x="342" y="84" type="line"/>
      <point x="406" y="84" type="line"/>
      <point x="406" y="191" type="line"/>
      <point x="342" y="191" type="line"/>
      <point x="342" y="441" type="line"/>
      <point x="268" y="441" type="line"/>
      <point x="19" y="191" type="line"/>
      <point x="19" y="84" type="line"/>
      <point x="234" y="84" type="line"/>
      <point x="234" y="1" type="line"/>
    </contour>
    <contour>
      <point x="238" y="312" type="line"/>
      <point x="238" y="191" type="line"/>
      <point x="120" y="191" type="line"/>
    </contour>
  </outline>
</glyph>
<glyph name="j.ss04" format="1">
  <advance width="286"/>
  <outline>
    <contour>
      <point x="48" y="-213" type="line"/>
      <point x="238" y="-213" type="line"/>
      <point x="238" y="517" type="line"/>
      <point x="48" y="517" type="line"/>
    </contour>
    <contour>
      <point x="48" y="570" type="line"/>
      <point x="237" y="570" type="line"/>
      <point x="237" y="730" type="line"/>
      <point x="48" y="730" type="line"/>
    </contour>
  </outline>
</glyph>
<glyph name="l.sc" format="1">
  <advance width="478"/>
  <outline>
    <contour>
      <point x="473" y="0" type="line"/>
      <point x="473" y="148" type="line"/>
      <point x="225" y="148" type="line"/>
      <point x="225" y="568" type="line"/>
      <point x="55" y="568" type="line"/>
      <point x="55" y="0" type="line"/>
    </contour>
    <contour>
      <point x="327" y="707" type="move" name="top"/>
    </contour>
    <contour>
      <point x="327" y="0" type="move" name="bottom"/>
    </contour>
  </outline>
</glyph>
<glyph name="nine.dnom" format="1">
  <advance width="441"/>
  <outline>
    <contour>
      <point x="25" y="289" type="curve" smooth="yes"/>
      <point x="25" y="376"/>
      <point x="108" y="444"/>
      <point x="219" y="444" type="curve" smooth="yes"/>
      <point x="339" y="444"/>
      <point x="412" y="364"/>
      <point x="412" y="225" type="curve" smooth="yes"/>
      <point x="412" y="82"/>
      <point x="334" y="-6"/>
      <point x="205" y="-6" type="curve" smooth="yes"/>
      <point x="142" y="-6"/>
      <point x="84" y="14"/>
      <point x="44" y="53" type="curve"/>
      <point x="106" y="130" type="line"/>
      <point x="129" y="109"/>
      <point x="168" y="97"/>
      <point x="209" y="97" type="curve" smooth="yes"/>
      <point x="270" y="97"/>
      <point x="310" y="122"/>
      <point x="312" y="164" type="curve"/>
      <point x="291" y="150"/>
      <point x="247" y="144"/>
      <point x="213" y="144" type="curve" smooth="yes"/>
      <point x="102" y="144"/>
      <point x="25" y="206"/>
    </contour>
    <contour>
      <point x="217" y="344" type="curve" smooth="yes"/>
      <point x="169" y="344"/>
      <point x="129" y="318"/>
      <point x="129" y="289" type="curve" smooth="yes"/>
      <point x="129" y="261"/>
      <point x="169" y="239"/>
      <point x="218" y="239" type="curve" smooth="yes"/>
      <point x="267" y="239"/>
      <point x="307" y="261"/>
      <point x="307" y="289" type="curve" smooth="yes"/>
      <point x="307" y="318"/>
      <point x="266" y="344"/>
    </contour>
  </outline>
</glyph>
<glyph name="nine.numr" format="1">
  <advance width="441"/>
  <outline>
    <contour>
      <point x="25" y="575" type="curve" smooth="yes"/>
      <point x="25" y="662"/>
      <point x="108" y="730"/>
      <point x="219" y="730" type="curve" smooth="yes"/>
      <point x="339" y="730"/>
      <point x="412" y="650"/>
      <point x="412" y="511" type="curve" smooth="yes"/>
      <point x="412" y="368"/>
      <point x="334" y="280"/>
      <point x="205" y="280" type="curve" smooth="yes"/>
      <point x="142" y="280"/>
      <point x="84" y="300"/>
      <point x="44" y="339" type="curve"/>
      <point x="106" y="416" type="line"/>
      <point x="129" y="395"/>
      <point x="168" y="383"/>
      <point x="209" y="383" type="curve" smooth="yes"/>
      <point x="270" y="383"/>
      <point x="310" y="408"/>
      <point x="312" y="450" type="curve"/>
      <point x="291" y="436"/>
      <point x="247" y="430"/>
      <point x="213" y="430" type="curve" smooth="yes"/>
      <point x="102" y="430"/>
      <point x="25" y="492"/>
    </contour>
    <contour>
      <point x="217" y="630" type="curve" smooth="yes"/>
      <point x="169" y="630"/>
      <point x="129" y="604"/>
      <point x="129" y="575" type="curve" smooth="yes"/>
      <point x="129" y="547"/>
      <point x="169" y="525"/>
      <point x="218" y="525" type="curve" smooth="yes"/>
      <point x="267" y="525"/>
      <point x="307" y="547"/>
      <point x="307" y="575" type="curve" smooth="yes"/>
      <point x="307" y="604"/>
      <point x="266" y="630"/>
    </contour>
  </outline>
</glyph>
<glyph name="one.dnom" format="1">
  <advance width="370"/>
  <outline>
    <contour>
      <point x="260" y="107" type="line"/>
      <point x="260" y="443" type="line"/>
      <point x="150" y="443" type="line"/>
      <point x="149" y="441"/>
      <point x="82" y="384"/>
      <point x="30" y="384" type="curve"/>
      <point x="30" y="275" type="line"/>
      <point x="70" y="275"/>
      <point x="133" y="309"/>
      <point x="150" y="328" type="curve"/>
      <point x="150" y="107" type="line"/>
      <point x="47" y="107" type="line"/>
      <point x="47" y="0" type="line"/>
      <point x="354" y="0" type="line"/>
      <point x="354" y="107" type="line"/>
    </contour>
  </outline>
</glyph>
<glyph name="one.numr" format="1">
  <advance width="321"/>
  <outline>
    <contour>
      <point x="233" y="395" type="line"/>
      <point x="233" y="731" type="line"/>
      <point x="123" y="731" type="line"/>
      <point x="122" y="729"/>
      <point x="71" y="672"/>
      <point x="30" y="672" type="curve"/>
      <point x="30" y="563" type="line"/>
      <point x="61" y="563"/>
      <point x="109" y="597"/>
      <point x="123" y="616" type="curve"/>
      <point x="123" y="395" type="line"/>
      <point x="47" y="395" type="line"/>
      <point x="47" y="288" type="line"/>
      <point x="300" y="288" type="line"/>
      <point x="300" y="395" type="line"/>
    </contour>
  </outline>
</glyph>
<glyph name="seven.numr" format="1">
  <advance width="418"/>
  <outline>
    <contour>
      <point x="41" y="291" type="line"/>
      <point x="164" y="291" type="line"/>
      <point x="423" y="731" type="line"/>
      <point x="23" y="731" type="line"/>
      <point x="23" y="622" type="line"/>
      <point x="253" y="622" type="line"/>
    </contour>
  </outline>
</glyph>
<glyph name="six.dnom" format="1">
  <advance width="441"/>
  <outline>
    <contour>
      <point x="416" y="148" type="curve" smooth="yes"/>
      <point x="416" y="62"/>
      <point x="333" y="-6"/>
      <point x="222" y="-6" type="curve" smooth="yes"/>
      <point x="102" y="-6"/>
      <point x="29" y="73"/>
      <point x="29" y="212" type="curve" smooth="yes"/>
      <point x="29" y="356"/>
      <point x="108" y="444"/>
      <point x="237" y="444" type="curve" smooth="yes"/>
      <point x="299" y="444"/>
      <point x="357" y="424"/>
      <point x="397" y="385" type="curve"/>
      <point x="335" y="308" type="line"/>
      <point x="312" y="329"/>
      <point x="273" y="340"/>
      <point x="232" y="340" type="curve" smooth="yes"/>
      <point x="171" y="340"/>
      <point x="131" y="316"/>
      <point x="129" y="274" type="curve"/>
      <point x="151" y="288"/>
      <point x="195" y="293"/>
      <point x="227" y="293" type="curve" smooth="yes"/>
      <point x="340" y="293"/>
      <point x="416" y="231"/>
    </contour>
    <contour>
      <point x="224" y="94" type="curve" smooth="yes"/>
      <point x="272" y="94"/>
      <point x="313" y="119"/>
      <point x="313" y="148" type="curve" smooth="yes"/>
      <point x="313" y="177"/>
      <point x="273" y="199"/>
      <point x="224" y="199" type="curve" smooth="yes"/>
      <point x="174" y="199"/>
      <point x="134" y="177"/>
      <point x="134" y="148" type="curve" smooth="yes"/>
      <point x="134" y="119"/>
      <point x="176" y="94"/>
    </contour>
  </outline>
</glyph>
<glyph name="six.numr" format="1">
  <advance width="441"/>
  <outline>
    <contour>
      <point x="416" y="434" type="curve" smooth="yes"/>
      <point x="416" y="348"/>
      <point x="333" y="280"/>
      <point x="222" y="280" type="curve" smooth="yes"/>
      <point x="102" y="280"/>
      <point x="29" y="359"/>
      <point x="29" y="498" type="curve" smooth="yes"/>
      <point x="29" y="642"/>
      <point x="108" y="730"/>
      <point x="237" y="730" type="curve" smooth="yes"/>
      <point x="299" y="730"/>
      <point x="357" y="710"/>
      <point x="397" y="671" type="curve"/>
      <point x="335" y="594" type="line"/>
      <point x="312" y="615"/>
      <point x="273" y="626"/>
      <point x="232" y="626" type="curve" smooth="yes"/>
      <point x="171" y="626"/>
      <point x="131" y="602"/>
      <point x="129" y="560" type="curve"/>
      <point x="151" y="574"/>
      <point x="195" y="579"/>
      <point x="227" y="579" type="curve" smooth="yes"/>
      <point x="340" y="579"/>
      <point x="416" y="517"/>
    </contour>
    <contour>
      <point x="224" y="380" type="curve" smooth="yes"/>
      <point x="272" y="380"/>
      <point x="313" y="405"/>
      <point x="313" y="434" type="curve" smooth="yes"/>
      <point x="313" y="463"/>
      <point x="273" y="485"/>
      <point x="224" y="485" type="curve" smooth="yes"/>
      <point x="174" y="485"/>
      <point x="134" y="463"/>
      <point x="134" y="434" type="curve" smooth="yes"/>
      <point x="134" y="405"/>
      <point x="176" y="380"/>
    </contour>
  </outline>
</glyph>
<glyph name="t.sc" format="1">
  <advance width="566"/>
  <outline>
    <contour>
      <point x="554" y="568" type="line"/>
      <point x="12" y="568" type="line"/>
      <point x="12" y="420" type="line"/>
      <point x="198" y="420" type="line"/>
      <point x="198" y="0" type="line"/>
      <point x="369" y="0" type="line"/>
      <point x="369" y="420" type="line"/>
      <point x="554" y="420" type="line"/>
    </contour>
    <contour>
      <point x="292" y="707" type="move" name="top"/>
    </contour>
    <contour>
      <point x="292" y="0" type="move" name="bottom"/>
    </contour>
  </outline>
</glyph>
<glyph name="three.dnom" format="1">
  <advance width="422"/>
  <outline>
    <contour>
      <point x="194" y="-6" type="curve" smooth="yes"/>
      <point x="292" y="-6"/>
      <point x="393" y="29"/>
      <point x="393" y="122" type="curve" smooth="yes"/>
      <point x="393" y="178"/>
      <point x="352" y="227"/>
      <point x="285" y="236" type="curve"/>
      <point x="345" y="245"/>
      <point x="383" y="278"/>
      <point x="383" y="326" type="curve" smooth="yes"/>
      <point x="383" y="394"/>
      <point x="304" y="446"/>
      <point x="199" y="446" type="curve" smooth="yes"/>
      <point x="130" y="446"/>
      <point x="56" y="427"/>
      <point x="21" y="390" type="curve"/>
      <point x="90" y="301" type="line"/>
      <point x="118" y="327"/>
      <point x="148" y="345"/>
      <point x="200" y="345" type="curve" smooth="yes"/>
      <point x="224" y="345"/>
      <point x="267" y="341"/>
      <point x="267" y="319" type="curve" smooth="yes"/>
      <point x="267" y="289"/>
      <point x="210" y="279"/>
      <point x="133" y="279" type="curve" smooth="yes"/>
      <point x="109" y="279" type="line"/>
      <point x="109" y="180" type="line"/>
      <point x="134" y="180" type="line" smooth="yes"/>
      <point x="227" y="180"/>
      <point x="282" y="170"/>
      <point x="282" y="139" type="curve" smooth="yes"/>
      <point x="282" y="113"/>
      <point x="240" y="104"/>
      <point x="192" y="104" type="curve" smooth="yes"/>
      <point x="138" y="104"/>
      <point x="106" y="125"/>
      <point x="80" y="149" type="curve"/>
      <point x="23" y="65" type="line"/>
      <point x="49" y="16"/>
      <point x="111" y="-6"/>
    </contour>
  </outline>
</glyph>
<glyph name="three.numr" format="1">
  <advance width="422"/>
  <outline>
    <contour>
      <point x="194" y="279" type="curve" smooth="yes"/>
      <point x="292" y="279"/>
      <point x="393" y="314"/>
      <point x="393" y="407" type="curve" smooth="yes"/>
      <point x="393" y="463"/>
      <point x="352" y="512"/>
      <point x="285" y="521" type="curve"/>
      <point x="345" y="530"/>
      <point x="383" y="563"/>
      <point x="383" y="611" type="curve" smooth="yes"/>
      <point x="383" y="679"/>
      <point x="304" y="731"/>
      <point x="199" y="731" type="curve" smooth="yes"/>
      <point x="130" y="731"/>
      <point x="56" y="712"/>
      <point x="21" y="675" type="curve"/>
      <point x="90" y="586" type="line"/>
      <point x="118" y="612"/>
      <point x="148" y="630"/>
      <point x="200" y="630" type="curve" smooth="yes"/>
      <point x="224" y="630"/>
      <point x="267" y="626"/>
      <point x="267" y="604" type="curve" smooth="yes"/>
      <point x="267" y="574"/>
      <point x="210" y="564"/>
      <point x="133" y="564" type="curve" smooth="yes"/>
      <point x="109" y="564" type="line"/>
      <point x="109" y="465" type="line"/>
      <point x="134" y="465" type="line" smooth="yes"/>
      <point x="227" y="465"/>
      <point x="282" y="455"/>
      <point x="282" y="424" type="curve" smooth="yes"/>
      <point x="282" y="398"/>
      <point x="240" y="389"/>
      <point x="192" y="389" type="curve" smooth="yes"/>
      <point x="138" y="389"/>
      <point x="106" y="410"/>
      <point x="80" y="434" type="curve"/>
      <point x="23" y="350" type="line"/>
      <point x="49" y="301"/>
      <point x="111" y="279"/>
    </contour>
  </outline>
</glyph>
<glyph name="two.dnom" format="1">
  <advance width="448"/>
  <outline>
    <contour>
      <point x="413" y="0" type="line"/>
      <point x="413" y="107" type="line"/>
      <point x="207" y="107" type="line"/>
      <point x="207" y="133"/>
      <point x="239" y="146"/>
      <point x="287" y="159" type="curve" smooth="yes"/>
      <point x="338" y="173"/>
      <point x="412" y="210"/>
      <point x="412" y="300" type="curve" smooth="yes"/>
      <point x="412" y="396"/>
      <point x="347" y="445"/>
      <point x="233" y="445" type="curve" smooth="yes"/>
      <point x="131" y="445"/>
      <point x="57" y="413"/>
      <point x="28" y="375" type="curve"/>
      <point x="96" y="295" type="line"/>
      <point x="122" y="318"/>
      <point x="165" y="339"/>
      <point x="216" y="339" type="curve" smooth="yes"/>
      <point x="260" y="339"/>
      <point x="288" y="331"/>
      <point x="288" y="301" type="curve" smooth="yes"/>
      <point x="288" y="257"/>
      <point x="224" y="237"/>
      <point x="161" y="210" type="curve" smooth="yes"/>
      <point x="53" y="165"/>
      <point x="26" y="114"/>
      <point x="26" y="0" type="curve"/>
    </contour>
  </outline>
</glyph>
<glyph name="two.lf" format="1">
  <advance width="631"/>
  <outline>
    <contour>
      <point x="583" y="0" type="line"/>
      <point x="583" y="170" type="line"/>
      <point x="306" y="170" type="line"/>
      <point x="328" y="208"/>
      <point x="372" y="235"/>
      <point x="441" y="278" type="curve" smooth="yes"/>
      <point x="526" y="331"/>
      <point x="582" y="400"/>
      <point x="582" y="503" type="curve" smooth="yes"/>
      <point x="582" y="636"/>
      <point x="489" y="718"/>
      <point x="327" y="718" type="curve" smooth="yes"/>
      <point x="197" y="718"/>
      <point x="89" y="665"/>
      <point x="36" y="605" type="curve"/>
      <point x="153" y="478" type="line"/>
      <point x="191" y="515"/>
      <point x="248" y="550"/>
      <point x="300" y="550" type="curve" smooth="yes"/>
      <point x="334" y="550"/>
      <point x="365" y="534"/>
      <point x="365" y="489" type="curve" smooth="yes"/>
      <point x="365" y="403"/>
      <point x="252" y="360"/>
      <point x="172" y="311" type="curve" smooth="yes"/>
      <point x="51" y="237"/>
      <point x="36" y="167"/>
      <point x="36" y="0" type="curve"/>
    </contour>
  </outline>
</glyph>
<glyph name="two.numr" format="1">
  <advance width="441"/>
  <outline>
    <contour>
      <point x="394" y="286" type="line"/>
      <point x="394" y="393" type="line"/>
      <point x="207" y="393" type="line"/>
      <point x="207" y="419"/>
      <point x="239" y="432"/>
      <point x="287" y="445" type="curve" smooth="yes"/>
      <point x="338" y="459"/>
      <point x="412" y="496"/>
      <point x="412" y="586" type="curve" smooth="yes"/>
      <point x="412" y="682"/>
      <point x="347" y="731"/>
      <point x="232" y="731" type="curve" smooth="yes"/>
      <point x="131" y="731"/>
      <point x="57" y="699"/>
      <point x="28" y="661" type="curve"/>
      <point x="96" y="581" type="line"/>
      <point x="122" y="604"/>
      <point x="165" y="625"/>
      <point x="216" y="625" type="curve" smooth="yes"/>
      <point x="260" y="625"/>
      <point x="288" y="617"/>
      <point x="288" y="587" type="curve" smooth="yes"/>
      <point x="288" y="543"/>
      <point x="224" y="523"/>
      <point x="160" y="496" type="curve" smooth="yes"/>
      <point x="53" y="451"/>
      <point x="26" y="400"/>
      <point x="26" y="286" type="curve"/>
    </contour>
  </outline>
</glyph>
<glyph name="z.sc" format="1">
  <advance width="569"/>
  <outline>
    <contour>
      <point x="29" y="0" type="line"/>
      <point x="536" y="0" type="line"/>
      <point x="536" y="148" type="line"/>
      <point x="251" y="148" type="line"/>
      <point x="531" y="442" type="line"/>
      <point x="531" y="568" type="line"/>
      <point x="42" y="568" type="line"/>
      <point x="42" y="420" type="line"/>
      <point x="326" y="420" type="line"/>
      <point x="29" y="126" type="line"/>
    </contour>
    <contour>
      <point x="333" y="707" type="move" name="top"/>
    </contour>
  </outline>
</glyph>
<glyph name="zero.dnom" format="1">
  <advance width="511"/>
  <outline>
    <contour>
      <point x="256" y="-6" type="curve" smooth="yes"/>
      <point x="398" y="-6"/>
      <point x="485" y="110"/>
      <point x="485" y="217" type="curve" smooth="yes"/>
      <point x="485" y="313"/>
      <point x="407" y="440"/>
      <point x="256" y="440" type="curve" smooth="yes"/>
      <point x="114" y="440"/>
      <point x="26" y="323"/>
      <point x="26" y="217" type="curve" smooth="yes"/>
      <point x="26" y="118"/>
      <point x="104" y="-6"/>
    </contour>
    <contour>
      <point x="138" y="217" type="curve" smooth="yes"/>
      <point x="138" y="265"/>
      <point x="172" y="331"/>
      <point x="256" y="331" type="curve" smooth="yes"/>
      <point x="334" y="331"/>
      <point x="373" y="270"/>
      <point x="373" y="217" type="curve" smooth="yes"/>
      <point x="373" y="169"/>
      <point x="339" y="103"/>
      <point x="256" y="103" type="curve" smooth="yes"/>
      <point x="175" y="103"/>
      <point x="138" y="164"/>
    </contour>
  </outline>
</glyph>
<glyph name="zero.numr" format="1">
  <advance width="511"/>
  <outline>
    <contour>
      <point x="256" y="284" type="curve" smooth="yes"/>
      <point x="398" y="284"/>
      <point x="485" y="400"/>
      <point x="485" y="507" type="curve" smooth="yes"/>
      <point x="485" y="603"/>
      <point x="407" y="730"/>
      <point x="256" y="730" type="curve" smooth="yes"/>
      <point x="114" y="730"/>
      <point x="26" y="613"/>
      <point x="26" y="507" type="curve" smooth="yes"/>
      <point x="26" y="408"/>
      <point x="104" y="284"/>
    </contour>
    <contour>
      <point x="138" y="507" type="curve" smooth="yes"/>
      <point x="138" y="555"/>
      <point x="172" y="621"/>
      <point x="256" y="621" type="curve" smooth="yes"/>
      <point x="334" y="621"/>
      <point x="373" y="560"/>
      <point x="373" y="507" type="curve" smooth="yes"/>
      <point x="373" y="459"/>
      <point x="339" y="393"/>
      <point x="256" y="393" type="curve" smooth="yes"/>
      <point x="175" y="393"/>
      <point x="138" y="454"/>
    </contour>
  </outline>
</glyph>
